<svg width="20" height="20" viewBox="0 0 20 20" fill="none" xmlns="http://www.w3.org/2000/svg">
<path d="M19.375 10.9141H0.625C0.34863 10.9141 0.125 10.6904 0.125 10.4141C0.125 10.1377 0.34863 9.91406 0.625 9.91406H19.375C19.6514 9.91406 19.875 10.1377 19.875 10.4141C19.875 10.6904 19.6514 10.9141 19.375 10.9141Z" fill="#fff"/>
<path d="M16.25 14.039C16.1221 14.039 15.9941 13.9902 15.8965 13.8926C15.7012 13.6973 15.7012 13.3808 15.8965 13.1855L18.668 10.4141L15.8965 7.64257C15.7012 7.44726 15.7012 7.13085 15.8965 6.93554C16.0918 6.74024 16.4082 6.74024 16.6035 6.93554L19.7285 10.0605C19.9238 10.2559 19.9238 10.5723 19.7285 10.7676L16.6035 13.8926C16.5059 13.9902 16.3779 14.039 16.25 14.039Z" fill="#fff"/>
</svg>
