<svg width="20" height="20" viewBox="0 0 20 20" fill="none" xmlns="http://www.w3.org/2000/svg">
<path d="M19.375 10.9141H0.625C0.34863 10.9141 0.125 10.6904 0.125 10.4141C0.125 10.1377 0.34863 9.91406 0.625 9.91406H19.375C19.6514 9.91406 19.875 10.1377 19.875 10.4141C19.875 10.6904 19.6514 10.9141 19.375 10.9141Z" fill="#167593"/>
<path d="M3.75 14.0391C3.62207 14.0391 3.49414 13.9902 3.39648 13.8926L0.271482 10.7676C0.0761725 10.5723 0.0761725 10.2559 0.271482 10.0605L3.39648 6.93554C3.59179 6.74024 3.9082 6.74024 4.10351 6.93554C4.29882 7.13085 4.29882 7.44726 4.10351 7.64257L1.33203 10.4141L4.10351 13.1855C4.29882 13.3808 4.29882 13.6973 4.10351 13.8926C4.00586 13.9902 3.87793 14.0391 3.75 14.0391Z" fill="#167593"/>
</svg>
