<svg width="16" height="16" viewBox="0 0 16 16" fill="none" xmlns="http://www.w3.org/2000/svg">
<g id="Group">
<g id="Clip path group">
<mask id="mask0_845_12933" style="mask-type:luminance" maskUnits="userSpaceOnUse" x="0" y="0" width="16" height="16">
<g id="SVGID_00000155853236192228209730000003569494429610477967_">
<path id="Vector" d="M16 0H0V16H16V0Z" fill="white"/>
</g>
</mask>
<g mask="url(#mask0_845_12933)">
<g id="Group_2">
<g id="Group_3">
<path id="Vector_2" d="M4.23447 15.9013C3.95088 15.9013 3.66729 15.8356 3.41182 15.7106C3.14736 15.581 2.91455 15.3872 2.73838 15.1505L0.179784 11.7396C0.046968 11.563 0.082912 11.3122 0.259864 11.1794C0.436424 11.0466 0.686816 11.0833 0.819632 11.2599L3.37901 14.6716C3.48057 14.8075 3.61338 14.9185 3.76417 14.9919C3.91573 15.0661 4.08682 15.106 4.25206 15.1013C4.42002 15.0981 4.58722 15.0552 4.73604 14.9755C4.88448 14.8974 5.01338 14.7825 5.11026 14.6435L15.1724 0.27041C15.2989 0.0883781 15.5481 0.0458021 15.7294 0.17197C15.9099 0.29853 15.9544 0.548138 15.827 0.729002L5.76611 15.102C5.59736 15.3435 5.3708 15.545 5.11142 15.6817C4.85244 15.82 4.55947 15.8966 4.26533 15.9013C4.25518 15.9013 4.24502 15.9013 4.23447 15.9013Z" fill="#167593"/>
</g>
</g>
</g>
</g>
</g>
</svg>
