<svg width="7" height="12" viewBox="0 0 7 12" fill="none" xmlns="http://www.w3.org/2000/svg">
<g id="Group">
<path id="Vector" d="M0.561875 11.9995C0.441875 11.9995 0.381875 11.9395 0.321875 11.8795C0.201875 11.7595 0.201875 11.5195 0.321875 11.3395L5.66188 5.99946L0.261875 0.659463C0.141875 0.539463 0.141875 0.299463 0.261875 0.119463C0.381875 -0.0605372 0.621875 -0.000537165 0.801875 0.119463L6.20188 5.45946C6.26188 5.51946 6.32188 5.63946 6.38188 5.69946C6.44188 5.81946 6.44187 5.87946 6.44187 5.99946C6.44187 6.11946 6.44188 6.17946 6.38188 6.29946C6.32188 6.41946 6.26188 6.47946 6.20188 6.53946L0.801875 11.8795C0.741875 11.9395 0.621875 11.9995 0.561875 11.9995Z" fill="#167593"/>
</g>
</svg>
