<svg style="position: absolute; width: 0; height: 0; overflow: hidden;" version="1.1" xmlns="http://www.w3.org/2000/svg"
  xmlns:xlink="http://www.w3.org/1999/xlink">
  <defs>
    <symbol id="icon-asterisk" viewBox="0 0 32 32">
    <title>asterisk</title>
    <path fill="none" stroke="#167593" style="stroke: var(--color1, #167593)" stroke-linejoin="round" stroke-linecap="round" stroke-miterlimit="4" stroke-width="2" d="M0.667 15.996h30.667"></path>
    <path fill="none" stroke="#167593" style="stroke: var(--color1, #167593)" stroke-linejoin="round" stroke-linecap="round" stroke-miterlimit="4" stroke-width="2" d="M8.333 29.275l15.333-26.557"></path>
    <path fill="none" stroke="#167593" style="stroke: var(--color1, #167593)" stroke-linejoin="round" stroke-linecap="round" stroke-miterlimit="4" stroke-width="2" d="M23.667 29.275l-15.333-26.557"></path>
    </symbol>
    <symbol id="icon-location-phone" viewBox="0 0 32 32">
    <title>location-phone</title>
    <path fill="#167593" style="fill: var(--color1, #167593)" d="M9.531 3.947c-0.373-0.099-0.761-0.123-1.143-0.069l-0.003 0.001c-1.421 0.233-2.554 0.743-3.334 1.499-0.783 0.759-1.2 1.755-1.2 2.937 0 5.262 2.090 10.308 5.811 14.029s8.767 5.811 14.029 5.811c1.181 0 2.178-0.417 2.936-1.201 0.755-0.782 1.264-1.918 1.494-3.344l0-0.003c0.054-0.383 0.031-0.772-0.068-1.146s-0.272-0.724-0.509-1.029l-0.007-0.009-0.096-0.091-3.333-2.636c-0.529-0.396-1.178-0.599-1.839-0.573s-1.292 0.276-1.79 0.712l-1.378 1.305c-1.443-0.352-3.2-1.456-4.636-2.83-0.729-0.698-1.369-1.461-1.84-2.223-0.457-0.739-0.748-1.469-0.812-2.133l1.375-1.45c0.428-0.5 0.673-1.131 0.693-1.789s-0.186-1.303-0.583-1.828l-2.615-3.31c-0.036-0.048-0.080-0.089-0.129-0.123-0.304-0.235-0.651-0.406-1.022-0.505zM6.331 6.108c0.644-0.474 1.486-0.722 2.269-0.843 0.069-0.005 0.139-0.004 0.208 0.001l0.010 0c0.299 0.001 0.591 0.092 0.837 0.261l2.539 3.208c0.201 0.268 0.306 0.596 0.298 0.931s-0.128 0.655-0.341 0.913l-1.55 1.638c-0.12 0.129-0.188 0.298-0.188 0.474 0 1.823 1.307 3.898 3.034 5.578 1.73 1.684 3.923 3.013 5.755 3.321 0.106 0.017 0.215 0.010 0.317-0.021s0.197-0.086 0.275-0.16l1.638-1.534c0.256-0.217 0.578-0.342 0.913-0.353s0.666 0.090 0.936 0.29l3.236 2.545c0.213 0.304 0.302 0.68 0.246 1.048-0.132 0.783-0.385 1.626-0.863 2.271-0.473 0.638-1.168 1.087-2.21 1.087-4.892 0-9.584-1.944-13.043-5.403s-5.403-8.151-5.403-13.043c0-1.042 0.448-1.737 1.087-2.207z"></path>
    </symbol>
    <symbol id="icon-location-email" viewBox="0 0 32 32">
    <title>location-email</title>
    <path fill="#167593" style="fill: var(--color1, #167593)" d="M23.5 24.002c-0.082 0-0.164-0.014-0.242-0.040l-19.75-6.75c-0.284-0.098-0.482-0.354-0.506-0.653-0.022-0.299 0.135-0.583 0.4-0.722l22.499-11.75c0.251-0.129 0.554-0.109 0.782 0.054 0.23 0.164 0.349 0.442 0.308 0.722l-2.75 18.5c-0.033 0.22-0.162 0.414-0.353 0.53-0.118 0.072-0.253 0.109-0.389 0.109zM5.646 16.357l17.244 5.894 2.401-16.152-19.645 10.258z"></path>
    <path fill="#167593" style="fill: var(--color1, #167593)" d="M12.5 27c-0.078 0-0.157-0.012-0.233-0.037-0.309-0.102-0.517-0.389-0.517-0.713v-6.75c0-0.189 0.072-0.373 0.201-0.512l13.75-14.75c0.282-0.304 0.759-0.319 1.061-0.037 0.303 0.282 0.319 0.757 0.037 1.061l-13.549 14.533v4.168l2.503-3.407c0.245-0.332 0.715-0.406 1.049-0.16 0.334 0.245 0.405 0.715 0.16 1.049l-3.857 5.25c-0.145 0.195-0.371 0.305-0.605 0.305z"></path>
    </symbol>
    <symbol id="icon-location-pin" viewBox="0 0 32 32">
    <title>location-pin</title>
    <path fill="#167593" style="fill: var(--color1, #167593)" d="M16 3c-5.515 0-10 4.485-10 10 0 6.932 9.027 16.038 9.41 16.423 0.163 0.162 0.377 0.243 0.59 0.243s0.427-0.082 0.59-0.243c0.383-0.385 9.41-9.492 9.41-16.423 0-5.515-4.485-10-10-10zM16 27.628c-1.99-2.13-8.333-9.333-8.333-14.628 0-4.595 3.738-8.333 8.333-8.333s8.333 3.738 8.333 8.333c0 5.29-6.343 12.498-8.333 14.628z"></path>
    <path fill="#167593" style="fill: var(--color1, #167593)" d="M16 8c-2.757 0-5 2.243-5 5s2.243 5 5 5c2.757 0 5-2.243 5-5s-2.243-5-5-5zM16 16.333c-1.838 0-3.333-1.495-3.333-3.333s1.495-3.333 3.333-3.333c1.838 0 3.333 1.495 3.333 3.333s-1.495 3.333-3.333 3.333z"></path>
    </symbol>
    <symbol id="icon-special-calendar" viewBox="0 0 30 32">
    <title>special-calendar</title>
    <path fill="#167593" style="fill: var(--color1, #167593)" d="M8.526 15.961h-1.895c-0.49 0-0.888 0.441-0.888 0.984s0.398 0.984 0.888 0.984h1.895c0.491 0 0.888-0.441 0.888-0.984s-0.398-0.984-0.888-0.984z"></path>
    <path fill="#167593" style="fill: var(--color1, #167593)" d="M8.526 20.161h-1.895c-0.49 0-0.888 0.441-0.888 0.984s0.398 0.984 0.888 0.984h1.895c0.491 0 0.888-0.441 0.888-0.984s-0.398-0.984-0.888-0.984z"></path>
    <path fill="#167593" style="fill: var(--color1, #167593)" d="M8.526 24.362h-1.895c-0.49 0-0.888 0.441-0.888 0.984s0.398 0.984 0.888 0.984h1.895c0.491 0 0.888-0.441 0.888-0.984s-0.398-0.984-0.888-0.984z"></path>
    <path fill="#167593" style="fill: var(--color1, #167593)" d="M16.105 15.961h-1.895c-0.491 0-0.888 0.441-0.888 0.984s0.398 0.984 0.888 0.984h1.895c0.491 0 0.888-0.441 0.888-0.984s-0.398-0.984-0.888-0.984z"></path>
    <path fill="#167593" style="fill: var(--color1, #167593)" d="M16.105 20.161h-1.895c-0.491 0-0.888 0.441-0.888 0.984s0.398 0.984 0.888 0.984h1.895c0.491 0 0.888-0.441 0.888-0.984s-0.398-0.984-0.888-0.984z"></path>
    <path fill="#167593" style="fill: var(--color1, #167593)" d="M16.105 24.362h-1.895c-0.491 0-0.888 0.441-0.888 0.984s0.398 0.984 0.888 0.984h1.895c0.491 0 0.888-0.441 0.888-0.984s-0.398-0.984-0.888-0.984z"></path>
    <path fill="#167593" style="fill: var(--color1, #167593)" d="M23.684 15.961h-1.895c-0.49 0-0.888 0.441-0.888 0.984s0.398 0.984 0.888 0.984h1.895c0.49 0 0.888-0.441 0.888-0.984s-0.398-0.984-0.888-0.984z"></path>
    <path fill="#167593" style="fill: var(--color1, #167593)" d="M23.684 20.161h-1.895c-0.49 0-0.888 0.441-0.888 0.984s0.398 0.984 0.888 0.984h1.895c0.49 0 0.888-0.441 0.888-0.984s-0.398-0.984-0.888-0.984z"></path>
    <path fill="#167593" style="fill: var(--color1, #167593)" d="M23.684 24.362h-1.895c-0.49 0-0.888 0.441-0.888 0.984s0.398 0.984 0.888 0.984h1.895c0.49 0 0.888-0.441 0.888-0.984s-0.398-0.984-0.888-0.984z"></path>
    <path fill="#167593" style="fill: var(--color1, #167593)" d="M27.651 3.888h-2.132v-1.64c0-0.544-0.398-0.984-0.888-0.984s-0.888 0.441-0.888 0.984v1.64h-7.697v-1.64c0-0.544-0.398-0.984-0.888-0.984s-0.888 0.441-0.888 0.984v1.64h-7.697v-1.64c0-0.544-0.398-0.984-0.888-0.984s-0.888 0.441-0.888 0.984v1.64h-2.132c-1.469 0-2.664 1.325-2.664 2.953v21.785c0 1.628 1.195 2.953 2.664 2.953h24.987c1.469 0 2.664-1.325 2.664-2.953 0-0.635 0-21.233 0-21.785 0-1.628-1.195-2.953-2.664-2.953zM1.776 6.841c0-0.543 0.398-0.984 0.888-0.984h2.132v1.64c0 0.544 0.398 0.984 0.888 0.984s0.888-0.441 0.888-0.984v-1.64h7.697v1.64c0 0.544 0.398 0.984 0.888 0.984s0.888-0.441 0.888-0.984v-1.64h7.697v1.64c0 0.544 0.398 0.984 0.888 0.984s0.888-0.441 0.888-0.984v-1.64h2.132c0.49 0 0.888 0.442 0.888 0.984v3.872h-26.763v-3.872zM27.651 29.61h-24.987c-0.49 0-0.888-0.442-0.888-0.984v-15.945h26.763v15.945c0 0.543-0.398 0.984-0.888 0.984z"></path>
    </symbol>
    <symbol id="icon-special-time" viewBox="0 0 32 32">
    <title>special-time</title>
    <path fill="#167593" style="fill: var(--color1, #167593)" d="M16 0c-8.822 0-16 7.177-16 16s7.178 16 16 16c8.823 0 16-7.177 16-16s-7.178-16-16-16zM16 29.664c-7.534 0-13.664-6.13-13.664-13.664s6.13-13.664 13.664-13.664c7.534 0 13.664 6.13 13.664 13.664s-6.13 13.665-13.664 13.665z"></path>
    <path fill="#167593" style="fill: var(--color1, #167593)" d="M21.452 16.002h-5.061v-7.007c0-0.645-0.523-1.168-1.168-1.168s-1.168 0.523-1.168 1.168v8.175c0 0.645 0.523 1.168 1.168 1.168h6.229c0.645 0 1.168-0.523 1.168-1.168s-0.523-1.168-1.168-1.168z"></path>
    </symbol>
    <symbol id="icon-special-price" viewBox="0 0 32 32">
    <title>special-price</title>
    <path fill="none" stroke="#167593" style="stroke: var(--color1, #167593)" stroke-linejoin="round" stroke-linecap="round" stroke-miterlimit="4" stroke-width="1.6" d="M30.352 21.464l-8.891 8.891c-0.321 0.321-0.757 0.501-1.211 0.501s-0.89-0.18-1.212-0.501l-17.646-17.646c-0.089-0.085-0.157-0.188-0.201-0.303s-0.061-0.238-0.051-0.36l1.349-8.754c0.011-0.209 0.099-0.406 0.247-0.553s0.345-0.236 0.553-0.247l8.754-1.349c0.122-0.010 0.245 0.007 0.36 0.051s0.218 0.112 0.303 0.201l17.646 17.646c0.321 0.321 0.501 0.757 0.501 1.211s-0.18 0.89-0.501 1.212z"></path>
    <path fill="none" stroke="#167593" style="stroke: var(--color1, #167593)" stroke-linejoin="round" stroke-linecap="round" stroke-miterlimit="4" stroke-width="1.6" d="M9.6 11.2c0.884 0 1.6-0.716 1.6-1.6s-0.716-1.6-1.6-1.6c-0.884 0-1.6 0.716-1.6 1.6s0.716 1.6 1.6 1.6z"></path>
    </symbol>
    <!-- Social Media Icons -->
    <symbol id="icon-facebook" viewBox="0 0 32 32">
      <title>facebook</title>
      <path
        d="M24.308 0.23v5.077h-3.020q-1.654 0-2.23 0.692t-0.577 2.077v3.635h5.634l-0.75 5.692h-4.885v14.596h-5.884v-14.596h-4.904v-5.692h4.904v-4.192q0-3.576 2-5.548t5.326-1.971q2.827 0 4.384 0.23z">
      </path>
    </symbol>
    <symbol id="icon-twitter" viewBox="0 0 32 32">
      <title>twitter</title>
      <path
        d="M32 6.093q-1.36 1.99-3.289 3.391 0.020 0.284 0.020 0.853 0 2.639-0.772 5.269t-2.346 5.045-3.746 4.274-5.238 2.964-6.558 1.106q-5.502 0-10.070-2.944 0.711 0.081 1.584 0.081 4.569 0 8.142-2.802-2.132-0.041-3.817-1.31t-2.315-3.238q0.67 0.101 1.238 0.101 0.873 0 1.726-0.223-2.274-0.467-3.767-2.264t-1.493-4.173v-0.081q1.38 0.772 2.964 0.832-1.341-0.894-2.132-2.335t-0.791-3.127q0-1.786 0.894-3.31 2.457 3.026 5.98 4.843t7.543 2.020q-0.163-0.772-0.163-1.502 0-2.721 1.919-4.639t4.639-1.919q2.843 0 4.791 2.071 2.213-0.426 4.163-1.584-0.752 2.335-2.883 3.615 1.889-0.204 3.776-1.015z">
      </path>
    </symbol>
    <symbol id="icon-instagram" viewBox="0 0 32 32">
      <title>instagram</title>
      <path
        d="M21.333 16q0-2.209-1.562-3.771t-3.771-1.562-3.771 1.562-1.562 3.771 1.562 3.771 3.771 1.562 3.771-1.562 1.562-3.771zM24.208 16q0 3.417-2.396 5.812t-5.812 2.396-5.812-2.396-2.396-5.812 2.396-5.812 5.812-2.396 5.812 2.396 2.396 5.812zM26.458 7.459q0 0.792-0.562 1.355t-1.355 0.562-1.355-0.562-0.562-1.355 0.562-1.355 1.355-0.562 1.355 0.562 0.562 1.355zM15.999 2.875q-0.146 0-1.594-0.010t-2.198 0-2.010 0.063-2.146 0.209-1.49 0.385q-1.042 0.417-1.833 1.209t-1.209 1.833q-0.229 0.604-0.385 1.49t-0.209 2.146-0.063 2.010 0 2.198 0.010 1.594-0.010 1.594 0 2.198 0.063 2.010 0.209 2.146 0.385 1.49q0.417 1.042 1.209 1.833t1.833 1.209q0.604 0.229 1.49 0.385t2.146 0.209 2.010 0.063 2.198 0 1.594-0.011 1.594 0.011 2.198 0 2.010-0.063 2.146-0.209 1.49-0.385q1.042-0.416 1.833-1.209t1.209-1.833q0.229-0.604 0.385-1.49t0.209-2.146 0.063-2.010 0-2.198-0.011-1.594 0.011-1.594 0-2.198-0.063-2.010-0.209-2.146-0.385-1.49q-0.416-1.042-1.209-1.833t-1.833-1.209q-0.604-0.229-1.49-0.385t-2.146-0.209-2.010-0.063-2.198 0-1.594 0.010zM32 16q0 4.771-0.104 6.605-0.209 4.333-2.583 6.708t-6.708 2.583q-1.833 0.104-6.605 0.104t-6.605-0.104q-4.333-0.209-6.708-2.583t-2.583-6.708q-0.104-1.833-0.104-6.605t0.104-6.605q0.209-4.333 2.583-6.708t6.708-2.583q1.833-0.104 6.605-0.104t6.605 0.104q4.333 0.209 6.708 2.583t2.583 6.708q0.104 1.833 0.104 6.605z">
      </path>
    </symbol>
    <symbol id="icon-youtube" viewBox="0 0 32 32">
      <title>youtube</title>
      <path
        d="M31.341 8.303c-0.369-1.371-1.45-2.452-2.82-2.821-2.504-0.685-12.521-0.685-12.521-0.685s-10.016 0-12.52 0.659c-1.344 0.369-2.452 1.476-2.82 2.847-0.659 2.504-0.659 7.697-0.659 7.697s0 5.219 0.659 7.697c0.369 1.371 1.45 2.451 2.821 2.82 2.53 0.685 12.521 0.685 12.521 0.685s10.016 0 12.52-0.659c1.371-0.369 2.451-1.45 2.821-2.82 0.659-2.504 0.659-7.697 0.659-7.697s0.026-5.219-0.659-7.723zM12.811 20.797v-9.595l8.329 4.797-8.329 4.797z">
      </path>
    </symbol>
    <symbol id="icon-pinterest" viewBox="0 0 32 32">
      <title>pinterest</title>
      <path
        d="M3.693 11.479q0-2.077 0.721-3.913t1.99-3.201 2.923-2.365 3.558-1.5 3.884-0.5q3.038 0 5.654 1.279t4.249 3.721 1.635 5.519q0 1.846-0.365 3.615t-1.153 3.404-1.923 2.875-2.788 1.98-3.634 0.741q-1.307 0-2.596-0.615t-1.846-1.692q-0.193 0.75-0.538 2.163t-0.452 1.826-0.394 1.365-0.5 1.365-0.615 1.202-0.884 1.49-1.192 1.664l-0.269 0.096-0.173-0.193q-0.289-3.020-0.289-3.615 0-1.769 0.414-3.971t1.279-5.529 1-3.904q-0.615-1.25-0.615-3.25 0-1.596 1-3t2.538-1.404q1.173 0 1.826 0.779t0.654 1.971q0 1.27-0.846 3.673t-0.846 3.596q0 1.211 0.866 2.009t2.096 0.798q1.057 0 1.961-0.48t1.51-1.307 1.077-1.826 0.731-2.125 0.384-2.134 0.125-1.914q0-3.326-2.105-5.183t-5.49-1.855q-3.845 0-6.422 2.491t-2.577 6.317q0 0.846 0.24 1.635t0.519 1.25 0.519 0.876 0.24 0.587q0 0.538-0.289 1.404t-0.712 0.866q-0.039 0-0.327-0.058-0.981-0.289-1.74-1.077t-1.173-1.818-0.625-2.077-0.211-2.048z">
      </path>
    </symbol>
    <symbol id="icon-linkedin" viewBox="0 0 32 32">
      <title>linkedin</title>
      <path
        d="M11.429 10.286h6.325v3.242h0.090c0.88-1.578 3.034-3.242 6.244-3.242 6.677 0 7.911 4.156 7.911 9.562v11.009h-6.593v-9.76c0-2.328-0.048-5.322-3.43-5.322-3.434 0-3.958 2.535-3.958 5.153v9.929h-6.591v-20.571z">
      </path>
      <path d="M0 10.286h6.857v20.571h-6.857v-20.571z"></path>
      <path
        d="M6.857 4.571c0 1.894-1.535 3.429-3.429 3.429s-3.429-1.535-3.429-3.429c0-1.894 1.535-3.429 3.429-3.429s3.429 1.535 3.429 3.429z">
      </path>
    </symbol>
    <symbol id="icon-link" viewBox="0 0 32 32">
      <title>link</title>
      <path
        d="M28.471 3.529c-2.571-2.571-6.755-2.572-9.327-0.001l0.001 0.001-4.069 4.069 1.878 1.878 4.069-4.071c1.536-1.534 4.034-1.533 5.57 0.002s1.535 4.034 0 5.571l-6.106 6.106c-0.744 0.744-1.733 1.154-2.785 1.154s-2.041-0.41-2.785-1.154l-1.878 1.878c1.246 1.246 2.902 1.932 4.663 1.932s3.418-0.686 4.663-1.932l6.106-6.106c2.571-2.572 2.571-6.756-0-9.326z">
      </path>
      <path
        d="M10.977 26.594c-1.536 1.535-4.035 1.535-5.571-0.001s-1.536-4.035-0-5.571l6.105-6.105c1.536-1.536 4.035-1.536 5.571 0l1.878-1.878c-2.572-2.571-6.756-2.572-9.327 0l-6.106 6.105c-2.571 2.571-2.571 6.756 0 9.327 1.286 1.286 2.975 1.929 4.664 1.929s3.377-0.643 4.663-1.928l0-0 4.070-4.071-1.878-1.878-4.069 4.071z">
      </path>
    </symbol>
    <symbol id="icon-tiktok" viewBox="0 0 32 32">
      <title>tiktok</title>
      <path
        d="M30.020 8.024c-1.826 0-3.511-0.605-4.864-1.626-1.552-1.17-2.667-2.886-3.061-4.864-0.098-0.489-0.15-0.993-0.155-1.51h-5.217v14.255l-0.006 7.808c0 2.087-1.359 3.858-3.244 4.48-0.547 0.181-1.137 0.266-1.752 0.233-0.785-0.043-1.521-0.28-2.16-0.663-1.361-0.814-2.283-2.29-2.308-3.979-0.039-2.639 2.094-4.791 4.732-4.791 0.521 0 1.021 0.085 1.489 0.239v-5.297c-0.494-0.073-0.996-0.111-1.504-0.111-2.887 0-5.587 1.2-7.517 3.362-1.459 1.634-2.334 3.718-2.469 5.904-0.177 2.871 0.874 5.601 2.911 7.614 0.299 0.296 0.614 0.57 0.942 0.823 1.747 1.344 3.883 2.073 6.132 2.073 0.508 0 1.011-0.038 1.504-0.111 2.101-0.311 4.040-1.273 5.57-2.786 1.88-1.858 2.919-4.325 2.93-6.951l-0.027-11.66c0.897 0.692 1.878 1.264 2.93 1.709 1.637 0.691 3.372 1.041 5.159 1.040v-5.194c0.001 0.001-0.014 0.001-0.015 0.001v0z">
      </path>
    </symbol>
    <!-- Form Icons -->
    <symbol id="icon-checkbox" viewBox="0 0 32 32">
      <title>checkbox</title>
      <path
        d="M28 0h-24c-2.2 0-4 1.8-4 4v24c0 2.2 1.8 4 4 4h24c2.2 0 4-1.8 4-4v-24c0-2.2-1.8-4-4-4zM28 28h-24v-24h24v24z">
      </path>
    </symbol>
    <symbol id="icon-checkbox-checked" viewBox="0 0 32 32">
      <title>checkbox-checked</title>
      <path
        d="M28 0h-24c-2.2 0-4 1.8-4 4v24c0 2.2 1.8 4 4 4h24c2.2 0 4-1.8 4-4v-24c0-2.2-1.8-4-4-4zM14 24.828l-7.414-7.414 2.828-2.828 4.586 4.586 9.586-9.586 2.828 2.828-12.414 12.414z">
      </path>
    </symbol>
    <symbol id="icon-radio" viewBox="0 0 32 32">
      <title>radio</title>
      <path
        d="M16 0c-8.837 0-16 7.163-16 16s7.163 16 16 16 16-7.163 16-16-7.163-16-16-16zM16 28c-6.627 0-12-5.373-12-12s5.373-12 12-12c6.627 0 12 5.373 12 12s-5.373 12-12 12z">
      </path>
    </symbol>
    <symbol id="icon-radio-selected" viewBox="0 0 32 32">
      <title>radio-selected</title>
      <path
        d="M16 0c-8.837 0-16 7.163-16 16s7.163 16 16 16 16-7.163 16-16-7.163-16-16-16zM16 20c-2.209 0-4-1.791-4-4s1.791-4 4-4c2.209 0 4 1.791 4 4s-1.791 4-4 4z">
      </path>
    </symbol>

    <!-- Loop Video Component Icons -->
    <symbol id="icon-play-loop" viewBox="0 0 23 32">
      <title>play</title>
      <path d="M22.268 15.932l-21.679 14.465v-28.93l21.679 14.465z"></path>
    </symbol>
    <symbol id="icon-pause-loop" viewBox="0 0 32 32">
    <title>pause-loop</title>
    <path d="M7.529 1.882c1.040 0 1.882 0.843 1.882 1.882v24.471c0 1.040-0.843 1.882-1.882 1.882s-1.882-0.843-1.882-1.882v-24.471c0-1.040 0.843-1.882 1.882-1.882z"></path>
    <path d="M24.471 1.882c1.040 0 1.882 0.843 1.882 1.882v24.471c0 1.040-0.843 1.882-1.882 1.882s-1.882-0.843-1.882-1.882v-24.471c0-1.040 0.843-1.882 1.882-1.882z"></path>
    </symbol>

    <!-- General Icons -->

    <symbol id="icon-send" viewBox="0 0 24 24">
      <title>send</title>
      <path d="M2.016 21v-6.984l15-2.016-15-2.016v-6.984l21 9z"></path>
    </symbol>
    <symbol id="icon-location" viewBox="0 0 32 32">
      <title>location</title>
      <path class="path1"
        d="M26.501 7.964c-0.114-0.427-0.345-0.882-0.516-1.28-2.048-4.921-6.522-6.684-10.134-6.684-4.836 0-10.162 3.243-10.873 9.927v1.366c0 0.057 0.020 0.569 0.048 0.825 0.399 3.185 2.912 6.571 4.789 9.756 2.020 3.413 4.115 6.77 6.192 10.126 1.28-2.19 2.556-4.409 3.807-6.542 0.341-0.626 0.737-1.252 1.078-1.849 0.227-0.398 0.662-0.796 0.861-1.166 2.020-3.698 5.27-7.424 5.27-11.093v-1.507c0-0.398-0.493-1.792-0.521-1.877zM15.94 14.82c-1.422 0-2.978-0.711-3.746-2.674-0.114-0.312-0.105-0.939-0.105-0.996v-0.882c0-2.502 2.125-3.64 3.973-3.64 2.276 0 4.036 1.821 4.036 4.096s-1.883 4.096-4.158 4.096z">
      </path>
    </symbol>
    <symbol id="icon-external-link" viewBox="0 0 32 32">
    <title>external-link</title>
    <path d="M31.903 0.105c0.31 0.315 0.306 0.821-0.009 1.131l-18.667 18.364c-0.315 0.31-0.822 0.306-1.131-0.009s-0.306-0.822 0.009-1.131l18.667-18.364c0.315-0.31 0.821-0.306 1.131 0.009z"></path>
    <path d="M19.866 0.666c0-0.442 0.358-0.8 0.8-0.8h10.667c0.442 0 0.8 0.358 0.8 0.8v10.495c0 0.442-0.358 0.8-0.8 0.8s-0.8-0.358-0.8-0.8v-9.695h-9.867c-0.442 0-0.8-0.358-0.8-0.8z"></path>
    <path d="M1.080 7.35c0.239-0.099 0.494-0.15 0.753-0.15h15.167c0.442 0 0.8 0.358 0.8 0.8s-0.358 0.8-0.8 0.8h-15.167c-0.048 0-0.096 0.009-0.14 0.028s-0.085 0.045-0.119 0.079c-0.034 0.034-0.061 0.074-0.079 0.119s-0.028 0.092-0.028 0.14v21c0 0.097 0.039 0.19 0.107 0.259s0.162 0.107 0.259 0.107h21c0.097 0 0.19-0.039 0.259-0.107s0.107-0.162 0.107-0.259v-15.167c0-0.442 0.358-0.8 0.8-0.8s0.8 0.358 0.8 0.8v15.167c0 0.522-0.207 1.022-0.576 1.391s-0.869 0.576-1.391 0.576h-21c-0.522 0-1.022-0.207-1.391-0.576s-0.576-0.869-0.576-1.391v-21c0-0.258 0.051-0.514 0.15-0.753s0.244-0.455 0.426-0.638c0.183-0.183 0.399-0.327 0.638-0.426z"></path>
    </symbol>
    <symbol id="icon-arrow-right-corner" viewBox="0 0 32 32">
    <title>arrow-right-corner</title>
    <path d="M4.768 26.779c0.312 0.312 0.819 0.312 1.131 0l21.213-21.213c0.312-0.312 0.312-0.819 0-1.131s-0.819-0.312-1.131 0l-21.213 21.213c-0.312 0.312-0.312 0.819 0 1.132z"></path>
    <path d="M26.547 25.8c0.442 0 0.8-0.358 0.8-0.8v-20c0-0.442-0.358-0.8-0.8-0.8h-20c-0.442 0-0.8 0.358-0.8 0.8s0.358 0.8 0.8 0.8h19.2v19.2c0 0.442 0.358 0.8 0.8 0.8z"></path>
    </symbol>
    <symbol id="icon-arrow-down" viewBox="0 0 32 32">
    <title>arrow-down</title>
    <path d="M16 31.8c-0.442 0-0.8-0.358-0.8-0.8v-30c0-0.442 0.358-0.8 0.8-0.8s0.8 0.358 0.8 0.8v30c0 0.442-0.358 0.8-0.8 0.8z"></path>
    <path d="M16 31.8c-0.205 0-0.409-0.078-0.566-0.234l-14-14c-0.313-0.312-0.313-0.819 0-1.131s0.819-0.312 1.131 0l13.434 13.434 13.434-13.434c0.312-0.312 0.819-0.312 1.131 0s0.312 0.819 0 1.131l-14 14c-0.156 0.156-0.361 0.234-0.566 0.234z"></path>
    </symbol>
    <symbol id="icon-chevron-down" viewBox="0 0 32 32">
    <title>chevron-down</title>
    <path d="M16 25.133c-0.241 0-0.475-0.047-0.695-0.139-0.212-0.088-0.408-0.219-0.576-0.384l-14.295-14.295c-0.313-0.313-0.313-0.819 0-1.131s0.819-0.313 1.131 0l14.293 14.292c0.006 0 0.212 0.042 0.219 0.042l14.357-14.334c0.312-0.313 0.819-0.313 1.131 0s0.312 0.819 0 1.131l-14.293 14.292c-0.17 0.169-0.366 0.3-0.584 0.389-0.213 0.091-0.447 0.137-0.688 0.137z"></path>
    </symbol>
    <symbol id="icon-arrow-left" viewBox="0 0 32 32">
    <title>arrow-left</title>
    <path d="M31 16.8h-30c-0.442 0-0.8-0.358-0.8-0.8s0.358-0.8 0.8-0.8h30c0.442 0 0.8 0.358 0.8 0.8s-0.358 0.8-0.8 0.8z"></path>
    <path d="M15 30.8c-0.205 0-0.409-0.078-0.566-0.234l-14-14c-0.313-0.312-0.313-0.819 0-1.131l14-14c0.313-0.313 0.819-0.313 1.131 0s0.313 0.819 0 1.131l-13.434 13.434 13.434 13.434c0.313 0.312 0.313 0.819 0 1.131-0.156 0.156-0.361 0.234-0.566 0.234z"></path>
    </symbol>
    <symbol id="icon-chevron-left" viewBox="0 0 32 32">
    <title>chevron-left</title>
    <path d="M7.894 16.073l14.339 14.361c0.312 0.312 0.312 0.819 0 1.131-0.156 0.156-0.361 0.234-0.566 0.234s-0.409-0.078-0.566-0.234l-14.294-14.293c-0.166-0.166-0.298-0.362-0.389-0.58-0.093-0.225-0.138-0.456-0.138-0.692s0.045-0.467 0.136-0.687c0.094-0.224 0.225-0.42 0.391-0.586l14.294-14.293c0.312-0.313 0.819-0.313 1.131 0s0.312 0.819 0 1.131l-14.294 14.293z"></path>
    </symbol>
    <symbol id="icon-arrow-right" viewBox="0 0 32 32">
    <title>arrow-right</title>
    <path d="M31 16.8h-30c-0.442 0-0.8-0.358-0.8-0.8s0.358-0.8 0.8-0.8h30c0.442 0 0.8 0.358 0.8 0.8s-0.358 0.8-0.8 0.8z"></path>
    <path d="M17 30.8c-0.205 0-0.409-0.078-0.566-0.234-0.312-0.312-0.312-0.819 0-1.131l13.434-13.434-13.434-13.434c-0.312-0.313-0.312-0.819 0-1.131s0.819-0.313 1.131 0l14 14c0.312 0.313 0.312 0.819 0 1.131l-14 14c-0.156 0.156-0.361 0.234-0.566 0.234z"></path>
    </symbol>
    <symbol id="icon-chevron-right" viewBox="0 0 32 32">
    <title>chevron-right</title>
    <path d="M21.105 15.923l-14.337-14.357c-0.313-0.313-0.313-0.819 0-1.131s0.819-0.313 1.131 0l14.294 14.293c0.17 0.172 0.302 0.368 0.391 0.584 0.091 0.22 0.136 0.451 0.136 0.688s-0.045 0.468-0.134 0.687c-0.091 0.218-0.222 0.414-0.389 0.584l-14.297 14.295c-0.156 0.156-0.361 0.234-0.566 0.234s-0.409-0.078-0.566-0.234c-0.313-0.312-0.313-0.819 0-1.131l14.294-14.293z"></path>
    </symbol>
    <symbol id="icon-checklist-check" viewBox="0 0 32 32">
<title>checklist-check</title>
<path fill="#167593" style="fill: var(--color1, #167593)" d="M8.469 31.803c-0.567 0-1.134-0.131-1.645-0.381-0.529-0.259-0.995-0.647-1.347-1.12l-5.117-6.822c-0.266-0.353-0.194-0.855 0.16-1.12s0.854-0.192 1.12 0.161l5.119 6.823c0.203 0.272 0.469 0.494 0.77 0.641 0.303 0.148 0.645 0.228 0.976 0.219 0.336-0.006 0.67-0.092 0.968-0.252 0.297-0.156 0.555-0.386 0.748-0.664l20.124-28.746c0.253-0.364 0.751-0.449 1.114-0.197 0.361 0.253 0.45 0.752 0.195 1.114l-20.122 28.746c-0.338 0.483-0.791 0.886-1.309 1.159-0.518 0.277-1.104 0.43-1.692 0.439-0.020 0-0.041 0-0.062 0z"></path>
</symbol>
    <symbol id="icon-arrow-up" viewBox="0 0 32 32">
    <title>arrow-up</title>
    <path d="M16 31.8c-0.442 0-0.8-0.358-0.8-0.8v-30c0-0.442 0.358-0.8 0.8-0.8s0.8 0.358 0.8 0.8v30c0 0.442-0.358 0.8-0.8 0.8z"></path>
    <path d="M30 15.8c-0.205 0-0.409-0.078-0.566-0.234l-13.434-13.434-13.434 13.434c-0.313 0.313-0.819 0.313-1.131 0s-0.313-0.819 0-1.131l14-14c0.313-0.313 0.819-0.313 1.131 0l14 14c0.312 0.313 0.312 0.819 0 1.131-0.156 0.156-0.361 0.234-0.566 0.234z"></path>
    </symbol>
    <symbol id="icon-chevron-up" viewBox="0 0 32 32">
    <title>chevron-up</title>
    <path d="M15.927 9.147l-14.361 14.338c-0.313 0.312-0.819 0.312-1.131 0s-0.313-0.819 0-1.131l14.293-14.292c0.166-0.166 0.362-0.298 0.58-0.389 0.45-0.186 0.94-0.184 1.379-0.002 0.224 0.094 0.42 0.225 0.586 0.391l14.293 14.292c0.312 0.312 0.312 0.819 0 1.131-0.156 0.156-0.361 0.234-0.566 0.234s-0.409-0.078-0.566-0.234l-14.335-14.334z"></path>
    </symbol>
    <symbol id="icon-check-circle" viewBox="0 0 32 32">
    <title>check-circle</title>
    <path d="M12.434 23.688c-0.025 0-0.050-0.002-0.075-0.002-0.343-0.009-0.689-0.105-0.995-0.273s-0.567-0.409-0.762-0.698l-3.257-4.622c-0.255-0.361-0.168-0.86 0.193-1.115 0.359-0.254 0.861-0.167 1.115 0.193l3.266 4.636c0.063 0.094 0.136 0.161 0.219 0.206s0.176 0.070 0.271 0.073c0.097 0.002 0.188-0.016 0.275-0.056 0.088-0.042 0.163-0.103 0.22-0.178l10.466-13.244c0.275-0.348 0.78-0.405 1.123-0.131 0.347 0.273 0.406 0.777 0.133 1.123l-10.458 13.23c-0.202 0.267-0.48 0.494-0.795 0.644-0.291 0.139-0.616 0.214-0.941 0.214z"></path>
    <path d="M16 31.798c-4.222 0-8.189-1.644-11.172-4.628-2.984-2.983-4.628-6.952-4.628-11.172s1.644-8.188 4.628-11.172c2.984-2.984 6.951-4.628 11.172-4.628s8.189 1.644 11.172 4.628c2.984 2.983 4.628 6.95 4.628 11.172s-1.644 8.189-4.628 11.172c-2.983 2.984-6.95 4.628-11.172 4.628zM16 1.798c-3.793 0-7.359 1.477-10.041 4.159s-4.159 6.248-4.159 10.041c0 3.794 1.477 7.359 4.159 10.041 2.681 2.683 6.247 4.159 10.041 4.159s7.359-1.476 10.041-4.159c2.683-2.681 4.159-6.247 4.159-10.041s-1.476-7.359-4.159-10.041c-2.681-2.682-6.247-4.159-10.041-4.159z"></path>
    </symbol>
    <symbol id="icon-check" viewBox="0 0 32 32">
    <title>check</title>
    <path d="M8.47 31.801c-0.567 0-1.134-0.131-1.645-0.381-0.529-0.259-0.995-0.647-1.347-1.12l-5.117-6.822c-0.266-0.353-0.194-0.855 0.16-1.12s0.854-0.192 1.12 0.161l5.119 6.823c0.203 0.272 0.469 0.494 0.77 0.641 0.303 0.148 0.645 0.228 0.976 0.219 0.336-0.006 0.67-0.092 0.968-0.252 0.297-0.156 0.555-0.386 0.748-0.664l20.124-28.746c0.253-0.364 0.752-0.449 1.114-0.197 0.361 0.253 0.45 0.752 0.195 1.114l-20.122 28.746c-0.338 0.483-0.791 0.886-1.309 1.159-0.518 0.277-1.104 0.43-1.692 0.439-0.020 0-0.041 0-0.062 0z"></path>
    </symbol>
    <symbol id="icon-close-circle" viewBox="0 0 32 32">
    <title>close-circle</title>
    <path d="M15.997 31.8c-4.221 0-8.188-1.644-11.172-4.628-2.984-2.983-4.628-6.952-4.628-11.172s1.644-8.188 4.628-11.172c2.984-2.984 6.952-4.628 11.172-4.628s8.189 1.644 11.172 4.628c2.984 2.983 4.628 6.95 4.628 11.172s-1.644 8.189-4.628 11.172c-2.983 2.984-6.95 4.628-11.172 4.628zM15.997 1.8c-3.792 0-7.359 1.477-10.041 4.159s-4.159 6.248-4.159 10.041c0 3.794 1.477 7.359 4.159 10.041 2.681 2.683 6.248 4.159 10.041 4.159s7.359-1.476 10.041-4.159c2.683-2.681 4.159-6.247 4.159-10.041s-1.476-7.359-4.159-10.041c-2.681-2.682-6.247-4.159-10.041-4.159z"></path>
    <path d="M9.997 22.8c-0.205 0-0.409-0.078-0.566-0.234-0.313-0.312-0.313-0.819 0-1.131l11.998-12c0.313-0.313 0.819-0.313 1.131 0s0.312 0.819 0 1.131l-11.998 12c-0.156 0.156-0.361 0.234-0.566 0.234z"></path>
    <path d="M21.997 22.8c-0.205 0-0.409-0.078-0.566-0.234l-12.001-12c-0.313-0.313-0.313-0.819 0-1.131s0.819-0.313 1.131 0l12.001 12c0.312 0.312 0.312 0.819 0 1.131-0.156 0.156-0.361 0.234-0.566 0.234z"></path>
    </symbol>
    <symbol id="icon-close" viewBox="0 0 32 32">
    <title>close</title>
    <path d="M1 31.798c-0.205 0-0.409-0.078-0.566-0.234-0.313-0.312-0.313-0.819 0-1.131l30-30c0.312-0.313 0.819-0.313 1.131 0s0.312 0.819 0 1.131l-30 30c-0.156 0.156-0.361 0.234-0.566 0.234z"></path>
    <path d="M31 31.798c-0.205 0-0.409-0.078-0.566-0.234l-30-30c-0.313-0.313-0.313-0.819 0-1.131s0.819-0.313 1.131 0l30 30c0.312 0.312 0.312 0.819 0 1.131-0.156 0.156-0.361 0.234-0.566 0.234z"></path>
    </symbol>
    <symbol id="icon-download" viewBox="0 0 32 32">
    <title>download</title>
    <path d="M16 25.797c-0.442 0-0.8-0.358-0.8-0.8v-24c0-0.442 0.358-0.8 0.8-0.8s0.8 0.358 0.8 0.8v24c0 0.442-0.358 0.8-0.8 0.8z"></path>
    <path d="M16 25.797c-0.205 0-0.409-0.078-0.566-0.234l-5-5c-0.313-0.313-0.313-0.819 0-1.131s0.819-0.312 1.131 0l4.434 4.434 4.434-4.434c0.312-0.312 0.819-0.312 1.131 0s0.312 0.819 0 1.131l-5 5c-0.156 0.156-0.361 0.234-0.566 0.234z"></path>
    <path d="M31 31.797h-30c-0.442 0-0.8-0.358-0.8-0.8s0.358-0.8 0.8-0.8h30c0.442 0 0.8 0.358 0.8 0.8s-0.358 0.8-0.8 0.8z"></path>
    </symbol>
    <symbol id="icon-logout" viewBox="0 0 32 32">
    <title>logout</title>
    <path d="M31 16.805h-21c-0.442 0-0.8-0.358-0.8-0.8s0.358-0.8 0.8-0.8h21c0.442 0 0.8 0.358 0.8 0.8s-0.358 0.8-0.8 0.8z"></path>
    <path d="M26 21.805c-0.205 0-0.409-0.078-0.566-0.234-0.312-0.312-0.312-0.819 0-1.131l4.434-4.434-4.434-4.434c-0.312-0.313-0.312-0.819 0-1.131s0.819-0.313 1.131 0l5 5c0.15 0.15 0.234 0.353 0.234 0.566s-0.084 0.416-0.234 0.566l-5 4.999c-0.156 0.156-0.361 0.234-0.566 0.234z"></path>
    <path d="M2.817 30.8c-0.761-0.036-1.427-0.352-1.913-0.888-0.486-0.534-0.735-1.227-0.703-1.948l-0.001-23.964c-0.033-0.686 0.217-1.379 0.704-1.913 0.479-0.527 1.162-0.851 1.873-0.886l16.404-0.001c0.761 0.037 1.427 0.351 1.914 0.886 0.488 0.537 0.738 1.23 0.703 1.951l0.002 5.963c0 0.442-0.358 0.8-0.8 0.8s-0.8-0.358-0.8-0.8v-6c0.014-0.333-0.089-0.617-0.289-0.837s-0.473-0.349-0.769-0.363l-16.325 0.001c-0.252 0.013-0.533 0.146-0.73 0.363-0.2 0.22-0.302 0.503-0.288 0.8l0.001 24.037c-0.014 0.333 0.088 0.617 0.288 0.837s0.473 0.348 0.769 0.364l16.324-0.002c0.256-0.014 0.53-0.142 0.73-0.363 0.2-0.222 0.303-0.505 0.291-0.8l-0.001-6.037c0-0.442 0.358-0.8 0.8-0.8s0.8 0.358 0.8 0.8v6c0.033 0.684-0.217 1.376-0.705 1.912-0.486 0.536-1.153 0.852-1.875 0.886l-16.403 0.002z"></path>
    </symbol>
    <symbol id="icon-arrow-left-long" viewBox="0 0 32 32">
    <title>arrow-left-long</title>
    <path d="M31 17.463h-30c-0.442 0-0.8-0.358-0.8-0.8s0.358-0.8 0.8-0.8h30c0.442 0 0.8 0.358 0.8 0.8s-0.358 0.8-0.8 0.8z"></path>
    <path d="M6 22.463c-0.205 0-0.409-0.078-0.566-0.234l-5-5c-0.313-0.312-0.313-0.819 0-1.131l5-5c0.313-0.312 0.819-0.312 1.131 0s0.313 0.819 0 1.131l-4.434 4.434 4.434 4.434c0.313 0.312 0.313 0.819 0 1.131-0.156 0.156-0.361 0.234-0.566 0.234z"></path>
    </symbol>
    <symbol id="icon-arrow-right-long" viewBox="0 0 32 32">
    <title>arrow-right-long</title>
    <path d="M31 17.463h-30c-0.442 0-0.8-0.358-0.8-0.8s0.358-0.8 0.8-0.8h30c0.442 0 0.8 0.358 0.8 0.8s-0.358 0.8-0.8 0.8z"></path>
    <path d="M26 22.462c-0.205 0-0.409-0.078-0.566-0.234-0.312-0.312-0.312-0.819 0-1.131l4.434-4.434-4.434-4.434c-0.312-0.313-0.312-0.819 0-1.131s0.819-0.312 1.131 0l5 5c0.312 0.313 0.312 0.819 0 1.131l-5 5c-0.156 0.156-0.361 0.234-0.566 0.234z"></path>
    </symbol>
    <symbol id="icon-minus" viewBox="0 0 32 32">
    <title>minus</title>
    <path d="M31 16.851h-30c-0.442 0-0.8-0.358-0.8-0.8s0.358-0.8 0.8-0.8h30c0.442 0 0.8 0.358 0.8 0.8s-0.358 0.8-0.8 0.8z"></path>
    </symbol>
    <symbol id="icon-number" viewBox="0 0 32 32">
    <title>number</title>
    <path d="M31 11.797h-26c-0.442 0-0.8-0.358-0.8-0.8s0.358-0.8 0.8-0.8h26c0.442 0 0.8 0.358 0.8 0.8s-0.358 0.8-0.8 0.8z"></path>
    <path d="M27 23.797h-26c-0.442 0-0.8-0.358-0.8-0.8s0.358-0.8 0.8-0.8h26c0.442 0 0.8 0.358 0.8 0.8s-0.358 0.8-0.8 0.8z"></path>
    <path d="M6 31.797c-0.084 0-0.169-0.012-0.253-0.041-0.419-0.141-0.645-0.594-0.505-1.012l10-30c0.14-0.419 0.59-0.645 1.012-0.505 0.419 0.139 0.645 0.592 0.505 1.012l-10 30c-0.112 0.334-0.423 0.547-0.759 0.547z"></path>
    <path d="M16 31.797c-0.084 0-0.169-0.012-0.253-0.041-0.419-0.141-0.645-0.594-0.505-1.012l9.999-30c0.142-0.42 0.597-0.644 1.013-0.505 0.419 0.139 0.645 0.592 0.506 1.012l-10.001 30c-0.112 0.334-0.424 0.547-0.759 0.547z"></path>
    </symbol>
    <symbol id="icon-user" viewBox="0 0 32 32">
    <title>user</title>
    <path d="M16 15.8c-2.083 0-4.041-0.811-5.516-2.284s-2.284-3.433-2.284-5.516 0.811-4.041 2.284-5.516c1.474-1.473 3.433-2.284 5.516-2.284 2.053 0 4.064 0.833 5.516 2.284 1.473 1.474 2.284 3.433 2.284 5.516s-0.811 4.041-2.284 5.516c-1.452 1.452-3.463 2.284-5.516 2.284zM16 1.8c-1.655 0-3.213 0.645-4.384 1.816s-1.816 2.729-1.816 4.384 0.645 3.213 1.816 4.384c1.172 1.171 2.729 1.816 4.384 1.816 1.633 0 3.23-0.662 4.384-1.816 1.17-1.172 1.816-2.729 1.816-4.384s-0.645-3.213-1.816-4.384c-1.155-1.154-2.752-1.816-4.384-1.816z"></path>
    <path d="M29 31.8c-0.442 0-0.8-0.358-0.8-0.8 0-3.258-1.269-6.322-3.573-8.627s-5.369-3.573-8.627-3.573c-3.259 0-6.322 1.269-8.627 3.573-2.305 2.303-3.573 5.367-3.573 8.627 0 0.442-0.358 0.8-0.8 0.8s-0.8-0.358-0.8-0.8c0-3.686 1.436-7.152 4.042-9.758s6.072-4.042 9.758-4.042c3.686 0 7.152 1.436 9.758 4.042s4.042 6.072 4.042 9.758c0 0.442-0.358 0.8-0.8 0.8z"></path>
    </symbol>
    <symbol id="icon-phone" viewBox="0 0 32 32">
    <title>phone</title>
    <path d="M24.041 31.817c-1.55 0-3.086-0.442-4.401-1.28-0.006-0.005-0.028-0.017-0.034-0.022-7.167-4.844-13.258-10.936-18.103-18.108-1.019-1.599-1.455-3.476-1.252-5.318 0.203-1.844 1.037-3.58 2.347-4.89l1.031-1.032c1.231-1.231 3.377-1.232 4.609-0.001l4.348 4.352c0.304 0.303 0.541 0.659 0.706 1.056 0.166 0.399 0.249 0.819 0.249 1.248s-0.084 0.848-0.248 1.246c-0.166 0.399-0.403 0.755-0.707 1.058-0.308 0.309-0.485 0.737-0.485 1.173 0 0.444 0.173 0.861 0.486 1.175l6.957 6.958c0.155 0.155 0.336 0.276 0.538 0.359 0.403 0.169 0.87 0.167 1.267 0.002 0.205-0.084 0.386-0.206 0.541-0.361 1.236-1.233 3.38-1.23 4.609 0l4.348 4.345c0.606 0.606 0.955 1.447 0.955 2.305 0 0.87-0.339 1.689-0.955 2.305l-1.031 1.033c-1.309 1.309-3.047 2.144-4.891 2.347-0.294 0.033-0.589 0.048-0.883 0.048zM20.486 29.18c1.275 0.811 2.778 1.163 4.262 0.998s2.881-0.834 3.934-1.888l1.031-1.033c0.314-0.314 0.486-0.73 0.486-1.173 0-0.437-0.176-0.864-0.486-1.173l-4.348-4.345c-0.627-0.628-1.716-0.627-2.348 0.002-0.303 0.303-0.659 0.541-1.055 0.705-0.784 0.328-1.708 0.33-2.498-0.002-0.392-0.162-0.748-0.4-1.053-0.705l-6.958-6.959c-0.616-0.616-0.954-1.435-0.954-2.305s0.338-1.688 0.953-2.304c0.155-0.155 0.277-0.338 0.362-0.54 0.083-0.202 0.126-0.416 0.126-0.634s-0.043-0.432-0.127-0.636c-0.084-0.201-0.205-0.383-0.36-0.537l-4.347-4.352c-0.628-0.627-1.719-0.627-2.348 0.001l-1.030 1.031c-1.054 1.054-1.724 2.451-1.887 3.934s0.188 2.991 0.988 4.249c4.726 6.994 10.667 12.939 17.658 17.666z"></path>
    </symbol>
    <symbol id="icon-plus" viewBox="0 0 32 32">
    <title>plus</title>
    <path d="M31 16.8h-30c-0.442 0-0.8-0.358-0.8-0.8s0.358-0.8 0.8-0.8h30c0.442 0 0.8 0.358 0.8 0.8s-0.358 0.8-0.8 0.8z"></path>
    <path d="M16 31.8c-0.442 0-0.8-0.358-0.8-0.8v-30c0-0.442 0.358-0.8 0.8-0.8s0.8 0.358 0.8 0.8v30c0 0.442-0.358 0.8-0.8 0.8z"></path>
    </symbol>
    <symbol id="icon-chevron-down-small" viewBox="0 0 32 32">
    <title>chevron-down-small</title>
    <path d="M16 24.32c-0.32 0-0.64 0-0.96-0.16-0.16-0.16-0.48-0.32-0.64-0.48l-14.080-14.080c-0.48-0.48-0.48-1.12 0-1.6s1.12-0.48 1.6 0l14.080 14.080 14.080-14.080c0.48-0.48 1.12-0.48 1.6 0s0.48 1.12 0 1.6l-14.080 14.080c-0.16 0.16-0.48 0.32-0.8 0.48-0.16 0.16-0.48 0.16-0.8 0.16z"></path>
    </symbol>
    <symbol id="icon-chevron-up-small" viewBox="0 0 32 32">
    <title>chevron-up-small</title>
    <path d="M1.143 24.342c-0.292 0-0.585-0.111-0.808-0.334-0.447-0.445-0.447-1.17 0-1.616l14.057-14.057c0.184-0.198 0.435-0.375 0.719-0.498 0.567-0.244 1.211-0.244 1.778 0 0.284 0.123 0.534 0.299 0.745 0.525l14.031 14.030c0.447 0.445 0.447 1.17 0 1.616-0.447 0.447-1.169 0.447-1.616 0l-14.058-14.057-14.041 14.057c-0.223 0.223-0.516 0.334-0.808 0.334z"></path>
    </symbol>
  </defs>
</svg>
