<svg aria-hidden="true" style="position: absolute; width: 0; height: 0; overflow: hidden;" version="1.1" xmlns="http://www.w3.org/2000/svg" xmlns:xlink="http://www.w3.org/1999/xlink">
  <defs>
<symbol id="icon-Body" viewBox="0 0 32 32">
<title>Body</title>
<path d="M26.566 26.378c-0.398-1.878-1.036-4.086-1.6-6.033l-0.028-0.098c-0.38-1.322-0.772-2.688-0.989-3.629 0.020-0.701-0.050-1.415-0.197-2.027 0.076-3.779-0.064-6.714-0.189-9.304l-0.016-0.326c-0.069-1.44-0.134-2.801-0.134-4.059 0-0.092-0.016-0.181-0.052-0.271-0.039-0.088-0.091-0.163-0.156-0.227s-0.139-0.112-0.228-0.151c-0.262-0.105-0.561-0.045-0.767 0.15-0.134 0.133-0.208 0.309-0.208 0.495 0 1.41 0.073 2.926 0.147 4.4 0.114 2.374 0.244 5.058 0.206 8.421-4.627-1.159-10.418-1.018-12.842-0.929l0.006-0.005c1.399-1.231 2.721-2.394 3.126-4.185 0.457-2.030-0.023-4.557-1.51-7.952-0.063-0.155-0.18-0.283-0.33-0.362-0.152-0.078-0.321-0.102-0.495-0.065-0.102 0.024-0.194 0.068-0.27 0.128-0.080 0.061-0.147 0.14-0.198 0.237-0.046 0.091-0.072 0.192-0.075 0.294-0.003 0.105 0.016 0.205 0.058 0.298 1.371 3.127 1.828 5.388 1.438 7.119-0.304 1.346-1.458 2.364-2.684 3.445-1.942 1.709-4.143 3.647-4.079 7.493 0.052 2.927 1.029 5.489 1.891 7.748 0.564 1.483 1.097 2.883 1.295 4.195 0.011 0.095 0.041 0.186 0.089 0.264 0.046 0.081 0.108 0.152 0.184 0.209 0.074 0.056 0.157 0.095 0.262 0.122 0.062 0.014 0.116 0.019 0.168 0.019 0.031 0 0.062-0.003 0.105-0.008 0.091-0.014 0.177-0.045 0.253-0.091 0.082-0.047 0.155-0.111 0.207-0.184 0.058-0.076 0.099-0.166 0.12-0.255 0.023-0.091 0.026-0.184 0.011-0.272-0.222-1.475-0.785-2.952-1.383-4.519-0.857-2.25-1.744-4.577-1.788-7.256-0.023-0.766 0.088-1.522 0.327-2.251 0.124-0.025 0.257-0.017 0.389 0.026 1.11 0.314 2.768 2.178 3.943 4.433 0.102 0.195 0.189 0.406 0.266 0.594 0.773 1.866 2.163 3.475 3.647 5.092-0.019 2.011-0.241 3.881-0.243 3.902-0.012 0.091-0.004 0.186 0.021 0.272 0.024 0.088 0.066 0.17 0.125 0.242 0.053 0.067 0.119 0.123 0.211 0.178 0.084 0.048 0.173 0.077 0.252 0.083 0.034 0.005 0.073 0.012 0.112 0.003 0.168-0.005 0.327-0.066 0.447-0.173 0.134-0.116 0.216-0.273 0.237-0.455 0.035-0.297 0.144-1.3 0.208-2.577 0.855 0.93 1.684 1.912 2.466 2.924 0.053 0.070 0.12 0.133 0.206 0.186 0.091 0.052 0.18 0.083 0.258 0.091 0.092 0.011 0.18 0.009 0.275-0.011 0.092-0.025 0.175-0.063 0.248-0.114 0.075-0.056 0.137-0.124 0.189-0.205 0.050-0.084 0.081-0.173 0.091-0.248 0.016-0.091 0.012-0.186-0.012-0.281-0.024-0.094-0.064-0.178-0.12-0.255-1.024-1.316-2.127-2.597-3.281-3.805-1.598-1.725-3.106-3.355-3.915-5.12-0.156-0.334-0.218-0.702-0.18-1.063 0.109-0.98 0.667-1.827 1.658-2.516 2.166-1.51 6.213-1.941 8.896-0.951 0.225 0.927 0.57 2.126 0.936 3.395l0.077 0.264c0.542 1.888 1.156 4.025 1.534 5.794 0.637 2.973 0.85 4.153 0.911 4.519 0.022 0.17 0.106 0.325 0.241 0.436 0.125 0.105 0.286 0.159 0.412 0.164 0.053 0.009 0.105 0.003 0.142-0.001 0.088-0.012 0.18-0.042 0.27-0.094 0.077-0.050 0.142-0.108 0.197-0.177 0.059-0.076 0.1-0.162 0.122-0.253 0.023-0.094 0.028-0.184 0.014-0.267 0-0.008-0.114-0.817-0.926-4.611zM22.507 15.692c-3.030-0.88-6.9-0.4-9.349 1.171l-0.004-0.004-0.229 0.159c-0.926 0.644-1.577 1.421-1.94 2.31-1.293-2-2.727-3.337-3.963-3.687-0.045-0.012-0.091-0.024-0.137-0.035 0.305-0.485 0.662-0.938 1.063-1.351 0.912-0.035 9.793-0.336 14.499 0.939 0.027 0.165 0.045 0.332 0.059 0.498z"></path>
</symbol>
    <symbol id="icon-Award-2" viewBox="0 0 32 32">
      <title>Award-2</title>
      <path d="M31.233 19.558c-0.231-0.409-0.648-0.686-1.117-0.737l-2.012-0.224c-2.047-0.23-4.017 0.877-4.886 2.753l-0.917 1.981c-0.003 0.006-0.001 0.013-0.004 0.019-1.823 2.31-3.995 2.993-6.296 3.702-2.3-0.709-4.473-1.392-6.295-3.701-0.003-0.006-0.001-0.012-0.004-0.018l-0.919-1.983c-0.868-1.876-2.821-2.986-4.885-2.753l-2.013 0.224c-0.468 0.052-0.885 0.327-1.116 0.736-0.232 0.411-0.252 0.911-0.054 1.339l0.919 1.983c0.793 1.712 2.498 2.783 4.35 2.783 0.177 0 0.355-0.009 0.535-0.030l2.013-0.223c0.234-0.026 0.455-0.107 0.646-0.234 1.352 1.403 2.827 2.172 4.322 2.731-1.159 0.468-2.298 1.086-3.35 2.068-0.323 0.302-0.34 0.808-0.039 1.13 0.158 0.169 0.371 0.255 0.585 0.255 0.195 0 0.391-0.072 0.546-0.216 1.406-1.312 3.035-1.876 4.758-2.412 1.723 0.536 3.352 1.1 4.759 2.412 0.153 0.144 0.35 0.216 0.545 0.216 0.214 0 0.427-0.086 0.584-0.255 0.302-0.322 0.284-0.828-0.039-1.13-1.052-0.983-2.19-1.6-3.349-2.068 1.495-0.559 2.97-1.328 4.322-2.731 0.192 0.126 0.412 0.208 0.646 0.234l2.012 0.223c0.18 0.020 0.358 0.030 0.536 0.030 1.853 0 3.558-1.070 4.35-2.783l0.917-1.981c0.198-0.428 0.18-0.928-0.052-1.339zM6.341 24.040c-1.368 0.164-2.677-0.584-3.256-1.834l-0.841-1.816 1.83-0.203c1.384-0.159 2.677 0.586 3.257 1.834l0.897 1.809-1.887 0.209zM28.914 22.206c-0.58 1.25-1.886 1.997-3.256 1.834l-1.83-0.203 0.842-1.816c0.58-1.25 1.886-1.998 3.256-1.834l1.83 0.203-0.842 1.816z"></path>
      <path d="M4.605 16.662l1.491 0.327c0.104 0.023 0.209 0.034 0.313 0.034 0.359 0 0.71-0.132 0.981-0.375 0.35-0.315 0.529-0.781 0.478-1.248l-0.178-1.662c-0.22-2.054-1.723-3.733-3.741-4.177l-1.491-0.327c-0.459-0.101-0.944 0.026-1.294 0.341-0.35 0.313-0.529 0.78-0.479 1.248l0.178 1.662c0.22 2.055 1.724 3.733 3.742 4.177zM3.605 11.125c1.345 0.296 2.348 1.415 2.495 2.784l0.213 1.49-1.364-0.299c-1.345-0.296-2.348-1.415-2.495-2.784l-0.159-1.478 1.31 0.287z"></path>
      <path d="M24.311 13.739l-0.178 1.662c-0.050 0.467 0.13 0.934 0.48 1.248 0.27 0.244 0.622 0.375 0.98 0.375 0.105 0 0.209-0.012 0.314-0.034l1.491-0.327c2.017-0.444 3.522-2.123 3.741-4.177l0.178-1.662c0.050-0.468-0.13-0.934-0.48-1.248s-0.831-0.438-1.292-0.34l-1.491 0.327c-2.019 0.444-3.522 2.123-3.742 4.177zM25.901 13.909c0.147-1.37 1.15-2.488 2.495-2.784l1.308-0.287-0.158 1.478c-0.147 1.37-1.148 2.488-2.494 2.784l-1.309 0.287 0.158-1.478z"></path>
      <path d="M6.702 8.683l1.072 0.859c0.239 0.191 0.536 0.293 0.836 0.293 0.119 0 0.238-0.016 0.355-0.048 0.412-0.115 0.746-0.423 0.894-0.824l0.522-1.418c0.713-1.94 0.109-4.11-1.502-5.402l-1.074-0.861c-0.334-0.266-0.778-0.356-1.191-0.243-0.412 0.115-0.746 0.423-0.894 0.823l-0.522 1.419c-0.713 1.939-0.109 4.11 1.504 5.402zM8.774 8.294c-0.001 0 0.001 0.001 0 0v0zM6.699 3.833l0.394-1.071 0.784 0.629c1.074 0.862 1.477 2.309 1.002 3.601l-0.394 1.070-0.784-0.627c-1.074-0.862-1.477-2.309-1.002-3.602z"></path>
      <path d="M22.141 8.96c0.147 0.402 0.481 0.711 0.894 0.826 0.117 0.033 0.237 0.049 0.358 0.049 0.3 0 0.595-0.102 0.834-0.293l1.072-0.859c1.612-1.292 2.217-3.464 1.503-5.403l-0.522-1.42c-0.148-0.401-0.483-0.708-0.894-0.822-0.412-0.116-0.856-0.023-1.191 0.244l-1.072 0.86c-1.612 1.291-2.217 3.463-1.503 5.402l0.52 1.416zM24.123 3.391l0.783-0.628 0.394 1.070c0.476 1.292 0.073 2.74-1.002 3.602l-0.783 0.628-0.394-1.071c-0.477-1.292-0.073-2.74 1.001-3.601z"></path>
      </symbol>
      <symbol id="icon-Bandage" viewBox="0 0 32 32">
      <title>Bandage</title>
      <path d="M23.273 30.739c-1.995 0-3.87-0.776-5.28-2.186l-14.546-14.546c-1.411-1.412-2.188-3.287-2.188-5.28s0.777-3.87 2.188-5.28c1.41-1.411 3.286-2.188 5.28-2.188s3.87 0.777 5.28 2.188l14.545 14.545c1.409 1.409 2.186 3.284 2.186 5.28s-0.776 3.87-2.186 5.28c-1.411 1.411-3.286 2.188-5.28 2.188zM8.728 2.859c-1.567 0-3.041 0.61-4.149 1.719-1.092 1.092-1.719 2.605-1.719 4.148 0 1.566 0.61 3.040 1.719 4.149l14.546 14.546c2.216 2.216 6.081 2.214 8.297-0.002 1.108-1.108 1.717-2.581 1.717-4.148s-0.609-3.041-1.717-4.148l-14.545-14.545c-1.108-1.109-2.581-1.719-4.148-1.719z"></path>
      <path d="M14.288 24.514c-0.205 0-0.409-0.078-0.566-0.234l-6.002-6c-0.15-0.15-0.234-0.353-0.234-0.566s0.084-0.416 0.234-0.566l9.429-9.428c0.313-0.313 0.819-0.313 1.131 0l6 6c0.312 0.313 0.312 0.819 0 1.131l-9.427 9.428c-0.156 0.156-0.361 0.234-0.566 0.234zM9.418 17.714l4.87 4.869 8.296-8.297-4.869-4.869-8.298 8.297z"></path>
      <path d="M6.605 7.709c-0.29 0-0.574-0.118-0.78-0.323-0.208-0.208-0.323-0.485-0.323-0.78 0-0.293 0.119-0.579 0.327-0.784 0.202-0.202 0.486-0.32 0.776-0.32v2.206z"></path>
      <path d="M6.606 7.709v-2.206c0.293 0 0.578 0.12 0.784 0.327 0.2 0.198 0.32 0.483 0.32 0.776 0 0.295-0.115 0.571-0.323 0.78-0.202 0.204-0.487 0.323-0.78 0.323z"></path>
      <path d="M6.303 11.648c-0.293 0-0.578-0.12-0.784-0.327-0.2-0.198-0.32-0.483-0.32-0.776 0-0.295 0.115-0.571 0.323-0.78 0.202-0.204 0.487-0.323 0.78-0.323v2.206z"></path>
      <path d="M6.303 11.648v-2.206c0.29 0 0.574 0.118 0.78 0.323 0.208 0.208 0.323 0.485 0.323 0.78 0 0.293-0.119 0.579-0.327 0.784-0.202 0.202-0.486 0.32-0.776 0.32z"></path>
      <path d="M10.242 11.345c-0.287 0-0.57-0.116-0.776-0.319-0.212-0.212-0.327-0.489-0.327-0.784 0-0.291 0.118-0.575 0.323-0.78s0.489-0.323 0.78-0.323v2.205z"></path>
      <path d="M10.242 11.345v-2.205c0.295 0 0.573 0.115 0.78 0.323 0.205 0.205 0.323 0.489 0.323 0.78 0 0.295-0.115 0.573-0.323 0.78-0.213 0.209-0.488 0.323-0.78 0.323z"></path>
      <path d="M10.545 7.406c-0.29 0-0.574-0.118-0.78-0.323-0.209-0.209-0.323-0.485-0.323-0.78 0-0.293 0.12-0.578 0.327-0.784 0.202-0.202 0.486-0.32 0.776-0.32v2.206z"></path>
      <path d="M10.545 7.406v-2.206c0.293 0 0.578 0.12 0.784 0.327 0.2 0.198 0.32 0.483 0.32 0.776 0 0.295-0.115 0.571-0.323 0.78-0.202 0.204-0.487 0.323-0.78 0.323z"></path>
      <path d="M21.758 22.861c-0.294 0-0.572-0.114-0.78-0.324-0.203-0.197-0.323-0.484-0.323-0.78 0-0.3 0.117-0.58 0.331-0.787 0.192-0.199 0.472-0.316 0.772-0.316v2.206z"></path>
      <path d="M21.758 22.861v-2.206c0.295 0 0.583 0.12 0.788 0.331 0.202 0.2 0.316 0.478 0.316 0.772 0 0.291-0.117 0.575-0.324 0.78-0.205 0.206-0.489 0.324-0.78 0.324z"></path>
      <path d="M25.697 22.558c-0.291 0-0.575-0.117-0.78-0.323-0.203-0.197-0.323-0.484-0.323-0.78 0-0.3 0.117-0.58 0.331-0.788 0.189-0.195 0.477-0.316 0.772-0.316v2.206z"></path>
      <path d="M25.697 22.558v-2.206c0.3 0 0.58 0.117 0.788 0.331 0.199 0.192 0.316 0.472 0.316 0.772 0 0.295-0.12 0.583-0.331 0.788-0.2 0.201-0.478 0.316-0.772 0.316z"></path>
      <path d="M25.394 26.497c-0.295 0-0.583-0.12-0.788-0.331-0.202-0.2-0.316-0.478-0.316-0.772 0-0.291 0.117-0.575 0.324-0.78 0.205-0.206 0.489-0.324 0.78-0.324v2.206z"></path>
      <path d="M25.394 26.497v-2.206c0.291 0 0.575 0.117 0.78 0.324 0.206 0.205 0.323 0.489 0.323 0.78 0 0.294-0.114 0.572-0.323 0.78-0.197 0.203-0.484 0.324-0.78 0.324z"></path>
      <path d="M21.455 26.8c-0.295 0-0.583-0.12-0.788-0.331-0.195-0.189-0.316-0.477-0.316-0.772s0.12-0.583 0.331-0.788c0.197-0.199 0.481-0.316 0.772-0.316v2.206z"></path>
      <path d="M21.455 26.8v-2.206c0.291 0 0.575 0.117 0.78 0.323 0.206 0.205 0.323 0.489 0.323 0.78s-0.117 0.575-0.323 0.78c-0.197 0.203-0.484 0.324-0.78 0.324z"></path>
      </symbol>
      <symbol id="icon-Bandages" viewBox="0 0 32 32">
      <title>Bandages</title>
      <path d="M24.772 31.784c-1.817 0-3.634-0.675-4.986-2.027l-17.542-17.545c-2.702-2.702-2.702-7.267 0-9.97 2.702-2.702 7.268-2.702 9.971 0h-0.002l17.545 17.545c2.702 2.702 2.702 7.267 0 9.97-1.35 1.352-3.169 2.027-4.986 2.027zM7.228 1.8c-1.47 0-2.838 0.559-3.853 1.573-2.088 2.090-2.088 5.62 0 7.708l17.542 17.545c2.091 2.088 5.622 2.088 7.709 0 2.088-2.089 2.088-5.619 0-7.708l-17.545-17.545c-1.014-1.015-2.383-1.573-3.853-1.573z"></path>
      <path d="M14.456 24.097c-0.213 0-0.416-0.084-0.566-0.234l-6.128-6.127c-0.15-0.151-0.234-0.354-0.234-0.566s0.084-0.416 0.234-0.566l8.843-8.844c0.3-0.3 0.831-0.3 1.132 0l6.127 6.127c0.312 0.313 0.312 0.819 0 1.131l-8.842 8.844c-0.15 0.15-0.353 0.234-0.566 0.234zM9.459 17.169l4.997 4.996 7.711-7.712-4.996-4.996-7.712 7.712z"></path>
      <path d="M28 13.6c-0.205 0-0.409-0.078-0.566-0.234-0.312-0.313-0.312-0.819 0-1.131l1.2-1.2c2.078-2.078 2.078-5.591 0-7.669s-5.591-2.078-7.669 0l-1.067 1.066c-0.312 0.313-0.819 0.313-1.131 0s-0.312-0.82 0-1.131l1.067-1.066c2.691-2.692 7.241-2.692 9.931 0 2.692 2.691 2.692 7.24 0 9.931l-1.2 1.2c-0.156 0.156-0.361 0.234-0.566 0.234z"></path>
      <path d="M7.2 31.784c-1.81 0-3.62-0.673-4.966-2.019-2.691-2.692-2.691-7.239 0-9.931l0.934-0.933c0.313-0.312 0.819-0.312 1.131 0s0.313 0.819 0 1.131l-0.934 0.933c-2.078 2.078-2.078 5.591 0 7.669s5.591 2.078 7.669 0l1.066-1.067c0.313-0.312 0.819-0.312 1.131 0s0.313 0.819 0 1.131l-1.066 1.067c-1.345 1.345-3.155 2.019-4.966 2.019z"></path>
      </symbol>
      <symbol id="icon-Body-Care-Cream" viewBox="0 0 32 32">
      <title>Body-Care-Cream</title>
      <path d="M28.333 30.267h-24.666c-0.454 0-0.899-0.089-1.324-0.263-0.424-0.176-0.802-0.43-1.126-0.752-0.326-0.328-0.579-0.706-0.752-1.128-0.175-0.42-0.264-0.867-0.264-1.325v-10.666c0-0.392 0.152-0.76 0.43-1.037s0.645-0.43 1.037-0.43h28.666c0.386 0 0.764 0.156 1.037 0.43 0.277 0.277 0.43 0.645 0.43 1.038v10.666c0 0.458-0.089 0.905-0.264 1.327-0.177 0.425-0.43 0.803-0.752 1.125s-0.7 0.575-1.125 0.752c-0.428 0.175-0.873 0.264-1.327 0.264zM1.761 16.266l0.039 10.534c0 0.247 0.048 0.488 0.142 0.714s0.23 0.431 0.405 0.608c0.174 0.172 0.378 0.309 0.605 0.403s0.47 0.142 0.713 0.142h24.666c0.244 0 0.484-0.048 0.717-0.144 0.222-0.092 0.431-0.233 0.603-0.403 0.173-0.173 0.309-0.378 0.405-0.606 0.094-0.227 0.142-0.467 0.142-0.714v-10.534h-28.439z"></path>
      <path d="M27 16.266h-22c-0.442 0-0.8-0.358-0.8-0.8v-2.666c0-0.57 0.222-1.105 0.625-1.509s0.939-0.625 1.509-0.625h19.334c0.561 0 1.111 0.228 1.508 0.625 0.403 0.403 0.625 0.939 0.625 1.509v2.666c0 0.442-0.358 0.8-0.8 0.8zM5.8 14.666h20.4v-1.866c0-0.142-0.056-0.277-0.156-0.377-0.1-0.099-0.236-0.156-0.376-0.156h-19.334c-0.142 0-0.277 0.055-0.377 0.156s-0.156 0.235-0.156 0.377v1.866z"></path>
      <path d="M25 12.269c-0.175 0-0.352-0.057-0.5-0.175-0.345-0.277-0.4-0.78-0.125-1.125 0.117-0.148 2.862-3.753-0.634-8.438l-0.173-0.063-0.9-0.162 0.748 0.28c-0.414 1.108-1.152 2.043-2.13 2.706-0.98 0.664-2.116 1.001-3.305 0.972h-5.981c-2.595 0-4.2 2.699-4.2 5.2 0 0.442-0.358 0.8-0.8 0.8s-0.8-0.358-0.8-0.8c0-3.27 2.217-6.8 5.8-6.8h6c0.861 0.024 1.686-0.221 2.389-0.697 0.701-0.476 1.231-1.148 1.53-1.942 0.114-0.301 0.303-0.564 0.552-0.763 0.247-0.2 0.547-0.33 0.863-0.377 0.314-0.050 0.636-0.009 0.933 0.111s0.556 0.316 0.748 0.567c4.262 5.71 0.648 10.358 0.611 10.405-0.158 0.197-0.391 0.3-0.625 0.3z"></path>
      <path d="M25 26.269h-18c-0.442 0-0.8-0.358-0.8-0.8v-6c0-0.442 0.358-0.8 0.8-0.8h18c0.442 0 0.8 0.358 0.8 0.8v6c0 0.442-0.358 0.8-0.8 0.8zM7.8 24.669h16.4v-4.4h-16.4v4.4z"></path>
      </symbol>
      <symbol id="icon-Briefcase" viewBox="0 0 32 32">
      <title>Briefcase</title>
      <path d="M29 30.8h-26c-1.126 0-2.8-0.745-2.8-2.8v-18c0-1.126 0.745-2.8 2.8-2.8h26c1.125 0 2.8 0.745 2.8 2.8v18c0 1.125-0.745 2.8-2.8 2.8zM3 8.8c-1.142 0-1.2 1-1.2 1.2v18c0 1.142 1 1.2 1.2 1.2h26c1.142 0 1.2-1 1.2-1.2v-18c0-1.142-1-1.2-1.2-1.2h-26z"></path>
      <path d="M25 15.8h-18c-0.442 0-0.8-0.358-0.8-0.8s0.358-0.8 0.8-0.8h18c0.442 0 0.8 0.358 0.8 0.8s-0.358 0.8-0.8 0.8z"></path>
      <path d="M25 23.8h-18c-0.442 0-0.8-0.358-0.8-0.8s0.358-0.8 0.8-0.8h18c0.442 0 0.8 0.358 0.8 0.8s-0.358 0.8-0.8 0.8z"></path>
      <path d="M22 8.8h-12c-0.257 0-0.498-0.123-0.649-0.332s-0.191-0.477-0.11-0.721l1.545-4.634c0.187-0.561 0.54-1.040 1.020-1.385s1.045-0.528 1.637-0.528h5.118c0.591 0 1.156 0.183 1.636 0.528s0.833 0.824 1.020 1.385l1.544 4.634c0.081 0.245 0.040 0.512-0.111 0.721-0.15 0.209-0.391 0.332-0.648 0.332zM11.11 7.2h9.78l-1.194-3.58c-0.080-0.24-0.231-0.445-0.436-0.593-0.203-0.146-0.452-0.227-0.701-0.227h-5.118c-0.253 0-0.496 0.078-0.702 0.227s-0.356 0.353-0.437 0.593l-1.192 3.58z"></path>
      <path d="M5 8.8c-0.442 0-0.8-0.358-0.8-0.8v-2c0-0.442 0.358-0.8 0.8-0.8s0.8 0.358 0.8 0.8v2c0 0.442-0.358 0.8-0.8 0.8z"></path>
      <path d="M27 8.8c-0.442 0-0.8-0.358-0.8-0.8v-2c0-0.442 0.358-0.8 0.8-0.8s0.8 0.358 0.8 0.8v2c0 0.442-0.358 0.8-0.8 0.8z"></path>
      </symbol>
      <symbol id="icon-Bullet-List" viewBox="0 0 32 32">
      <title>Bullet-List</title>
      <path d="M22 19.814h-7c-0.442 0-0.8-0.358-0.8-0.8s0.358-0.8 0.8-0.8h7c0.442 0 0.8 0.358 0.8 0.8s-0.358 0.8-0.8 0.8z"></path>
      <path d="M22 25.814h-7c-0.442 0-0.8-0.358-0.8-0.8s0.358-0.8 0.8-0.8h7c0.442 0 0.8 0.358 0.8 0.8s-0.358 0.8-0.8 0.8z"></path>
      <path d="M22 13.815h-7c-0.442 0-0.8-0.358-0.8-0.8s0.358-0.8 0.8-0.8h7c0.442 0 0.8 0.358 0.8 0.8s-0.358 0.8-0.8 0.8z"></path>
      <path d="M11 20.314c-0.348 0-0.675-0.134-0.92-0.38-0.242-0.242-0.38-0.577-0.38-0.92 0-0.342 0.138-0.677 0.38-0.919s0.577-0.381 0.92-0.381v2.6z"></path>
      <path d="M11 20.314v-2.6c0.342 0 0.677 0.139 0.92 0.381s0.38 0.576 0.38 0.919c0 0.344-0.138 0.678-0.38 0.92-0.245 0.245-0.571 0.38-0.92 0.38z"></path>
      <path d="M11 26.314c-0.348 0-0.675-0.134-0.92-0.38-0.242-0.242-0.38-0.577-0.38-0.92 0-0.342 0.138-0.677 0.38-0.919s0.577-0.381 0.92-0.381v2.6z"></path>
      <path d="M11 26.314v-2.6c0.342 0 0.677 0.139 0.92 0.381s0.38 0.576 0.38 0.919c0 0.344-0.138 0.678-0.38 0.92-0.245 0.245-0.571 0.38-0.92 0.38z"></path>
      <path d="M11 14.315c-0.342 0-0.677-0.139-0.92-0.381s-0.38-0.577-0.38-0.919c0-0.348 0.135-0.674 0.38-0.92s0.572-0.38 0.92-0.38v2.6z"></path>
      <path d="M11 14.315v-2.6c0.348 0 0.674 0.135 0.92 0.38s0.38 0.572 0.38 0.92c0 0.342-0.138 0.677-0.38 0.919s-0.577 0.381-0.92 0.381z"></path>
      <path d="M26 31.8h-20c-0.748 0-1.451-0.291-1.98-0.82-0.521-0.522-0.82-1.242-0.82-1.98v-21c0-0.748 0.291-1.451 0.82-1.98s1.232-0.82 1.98-0.82h4.255c0.17-1.246 0.74-2.397 1.645-3.301 1.095-1.095 2.551-1.699 4.101-1.699 1.527 0 3.024 0.62 4.102 1.699 0.905 0.905 1.473 2.055 1.644 3.301h4.255c0.737 0 1.458 0.299 1.98 0.82 0.53 0.529 0.82 1.232 0.82 1.98v21c0 0.737-0.298 1.458-0.82 1.98s-1.242 0.82-1.98 0.82zM6 6.8c-0.32 0-0.622 0.125-0.848 0.352s-0.352 0.528-0.352 0.848v21c0 0.316 0.128 0.625 0.352 0.848 0.227 0.227 0.528 0.352 0.848 0.352h20c0.316 0 0.625-0.128 0.848-0.352s0.352-0.533 0.352-0.848v-21c0-0.32-0.125-0.622-0.352-0.848-0.224-0.223-0.533-0.352-0.848-0.352h-5c-0.442 0-0.8-0.358-0.8-0.8 0-1.122-0.437-2.177-1.23-2.97-1.573-1.574-4.365-1.577-5.94 0-0.794 0.793-1.23 1.848-1.23 2.97 0 0.442-0.358 0.8-0.8 0.8h-5z"></path>
      <path d="M16 6.815c-0.342 0-0.677-0.139-0.92-0.381s-0.38-0.577-0.38-0.919c0-0.348 0.135-0.674 0.38-0.92s0.572-0.38 0.92-0.38v2.6z"></path>
      <path d="M16 6.815v-2.6c0.348 0 0.674 0.135 0.92 0.38s0.38 0.572 0.38 0.92c0 0.342-0.138 0.677-0.38 0.919s-0.577 0.381-0.92 0.381z"></path>
      </symbol>
      <symbol id="icon-Calendar" viewBox="0 0 32 32">
      <title>Calendar</title>
      <path d="M29 31.8h-26c-0.748 0-1.451-0.291-1.98-0.82-0.521-0.522-0.82-1.242-0.82-1.98v-22c0-0.748 0.291-1.451 0.82-1.98s1.232-0.82 1.98-0.82h26c0.737 0 1.458 0.299 1.98 0.82 0.53 0.529 0.82 1.232 0.82 1.98v22c0 0.737-0.298 1.458-0.82 1.98s-1.242 0.82-1.98 0.82zM3 5.8c-0.32 0-0.622 0.125-0.848 0.352s-0.352 0.528-0.352 0.848v22c0 0.316 0.128 0.625 0.352 0.848 0.227 0.227 0.528 0.352 0.848 0.352h26c0.316 0 0.625-0.128 0.848-0.352s0.352-0.533 0.352-0.848v-22c0-0.32-0.125-0.622-0.352-0.848-0.224-0.223-0.533-0.352-0.848-0.352h-26z"></path>
      <path d="M31 13.8h-30c-0.442 0-0.8-0.358-0.8-0.8s0.358-0.8 0.8-0.8h30c0.442 0 0.8 0.358 0.8 0.8s-0.358 0.8-0.8 0.8z"></path>
      <path d="M9 8.8c-0.442 0-0.8-0.358-0.8-0.8v-7c0-0.442 0.358-0.8 0.8-0.8s0.8 0.358 0.8 0.8v7c0 0.442-0.358 0.8-0.8 0.8z"></path>
      <path d="M23 8.8c-0.442 0-0.8-0.358-0.8-0.8v-7c0-0.442 0.358-0.8 0.8-0.8s0.8 0.358 0.8 0.8v7c0 0.442-0.358 0.8-0.8 0.8z"></path>
      <path d="M7.5 19.8c-0.342 0-0.677-0.139-0.92-0.381-0.245-0.245-0.38-0.572-0.38-0.919s0.135-0.673 0.38-0.919c0.242-0.242 0.577-0.381 0.92-0.381v2.6z"></path>
      <path d="M7.5 19.8v-2.6c0.342 0 0.677 0.139 0.92 0.381 0.245 0.245 0.38 0.572 0.38 0.919s-0.135 0.673-0.38 0.919c-0.242 0.242-0.577 0.381-0.92 0.381z"></path>
      <path d="M7.5 26.8c-0.342 0-0.677-0.139-0.92-0.381-0.245-0.245-0.38-0.572-0.38-0.919s0.135-0.673 0.38-0.919c0.242-0.242 0.577-0.381 0.92-0.381v2.6z"></path>
      <path d="M7.5 26.8v-2.6c0.342 0 0.677 0.139 0.92 0.381 0.245 0.245 0.38 0.572 0.38 0.919s-0.135 0.673-0.38 0.919c-0.242 0.242-0.577 0.381-0.92 0.381z"></path>
      <path d="M16 19.8c-0.342 0-0.677-0.139-0.92-0.381-0.245-0.245-0.38-0.572-0.38-0.919s0.135-0.673 0.38-0.919c0.242-0.242 0.577-0.381 0.92-0.381v2.6z"></path>
      <path d="M16 19.8v-2.6c0.342 0 0.677 0.139 0.92 0.381 0.245 0.245 0.38 0.572 0.38 0.919s-0.135 0.673-0.38 0.919c-0.242 0.242-0.577 0.381-0.92 0.381z"></path>
      <path d="M16 26.8c-0.342 0-0.677-0.139-0.92-0.381-0.245-0.245-0.38-0.572-0.38-0.919s0.135-0.673 0.38-0.919c0.242-0.242 0.577-0.381 0.92-0.381v2.6z"></path>
      <path d="M16 26.8v-2.6c0.342 0 0.677 0.139 0.92 0.381 0.245 0.245 0.38 0.572 0.38 0.919s-0.135 0.673-0.38 0.919c-0.242 0.242-0.577 0.381-0.92 0.381z"></path>
      <path d="M24.5 19.8c-0.347 0-0.673-0.136-0.919-0.381s-0.381-0.572-0.381-0.919c0-0.347 0.136-0.673 0.381-0.919s0.572-0.381 0.919-0.381v2.6z"></path>
      <path d="M24.5 19.8v-2.6c0.347 0 0.673 0.135 0.919 0.381s0.381 0.572 0.381 0.919-0.136 0.673-0.381 0.919c-0.245 0.245-0.572 0.381-0.919 0.381z"></path>
      <path d="M24.5 26.8c-0.347 0-0.673-0.136-0.919-0.381s-0.381-0.572-0.381-0.919c0-0.347 0.136-0.673 0.381-0.919s0.572-0.381 0.919-0.381v2.6z"></path>
      <path d="M24.5 26.8v-2.6c0.347 0 0.673 0.136 0.919 0.381s0.381 0.572 0.381 0.919c0 0.347-0.136 0.673-0.381 0.919s-0.572 0.381-0.919 0.381z"></path>
      </symbol>
      <symbol id="icon-check-circle" viewBox="0 0 32 32">
      <title>check-circle</title>
      <path d="M12.434 23.688c-0.025 0-0.050-0.002-0.075-0.002-0.343-0.009-0.689-0.105-0.995-0.273s-0.567-0.409-0.762-0.698l-3.257-4.622c-0.255-0.361-0.168-0.86 0.193-1.115 0.359-0.254 0.861-0.167 1.115 0.193l3.266 4.636c0.063 0.094 0.136 0.161 0.219 0.206s0.176 0.070 0.271 0.073c0.097 0.002 0.188-0.016 0.275-0.056 0.088-0.042 0.163-0.103 0.22-0.178l10.466-13.244c0.275-0.348 0.78-0.405 1.123-0.131 0.347 0.273 0.406 0.777 0.133 1.123l-10.458 13.23c-0.202 0.267-0.48 0.494-0.795 0.644-0.291 0.139-0.616 0.214-0.941 0.214z"></path>
      <path d="M16 31.798c-4.222 0-8.189-1.644-11.172-4.628-2.984-2.983-4.628-6.952-4.628-11.172s1.644-8.188 4.628-11.172c2.984-2.984 6.951-4.628 11.172-4.628s8.189 1.644 11.172 4.628c2.984 2.983 4.628 6.95 4.628 11.172s-1.644 8.189-4.628 11.172c-2.983 2.984-6.95 4.628-11.172 4.628zM16 1.798c-3.793 0-7.359 1.477-10.041 4.159s-4.159 6.248-4.159 10.041c0 3.794 1.477 7.359 4.159 10.041 2.681 2.683 6.247 4.159 10.041 4.159s7.359-1.476 10.041-4.159c2.683-2.681 4.159-6.247 4.159-10.041s-1.476-7.359-4.159-10.041c-2.681-2.682-6.247-4.159-10.041-4.159z"></path>
      </symbol>
      <symbol id="icon-Clock" viewBox="0 0 32 32">
      <title>Clock</title>
      <path d="M16 31.658c-8.634 0-15.657-7.023-15.657-15.658s7.023-15.657 15.657-15.657c8.634 0 15.658 7.023 15.658 15.657s-7.023 15.658-15.658 15.658zM16 1.943c-7.751 0-14.057 6.306-14.057 14.057s6.306 14.058 14.057 14.058c7.752 0 14.058-6.306 14.058-14.058s-6.306-14.057-14.058-14.057z"></path>
      <path d="M21.806 23.566c-0.225 0-0.448-0.095-0.608-0.28l-5.805-6.765c-0.124-0.145-0.193-0.33-0.193-0.521v-5.714c0-0.442 0.358-0.8 0.8-0.8s0.8 0.358 0.8 0.8v5.418l5.614 6.541c0.288 0.334 0.248 0.839-0.088 1.128-0.15 0.128-0.336 0.192-0.52 0.192z"></path>
      </symbol>
      <symbol id="icon-close-circle" viewBox="0 0 32 32">
      <title>close-circle</title>
      <path d="M15.997 31.8c-4.221 0-8.188-1.644-11.172-4.628-2.984-2.983-4.628-6.952-4.628-11.172s1.644-8.188 4.628-11.172c2.984-2.984 6.952-4.628 11.172-4.628s8.189 1.644 11.172 4.628c2.984 2.983 4.628 6.95 4.628 11.172s-1.644 8.189-4.628 11.172c-2.983 2.984-6.95 4.628-11.172 4.628zM15.997 1.8c-3.792 0-7.359 1.477-10.041 4.159s-4.159 6.248-4.159 10.041c0 3.794 1.477 7.359 4.159 10.041 2.681 2.683 6.248 4.159 10.041 4.159s7.359-1.476 10.041-4.159c2.683-2.681 4.159-6.247 4.159-10.041s-1.476-7.359-4.159-10.041c-2.681-2.682-6.247-4.159-10.041-4.159z"></path>
      <path d="M9.997 22.8c-0.205 0-0.409-0.078-0.566-0.234-0.313-0.312-0.313-0.819 0-1.131l11.998-12c0.313-0.313 0.819-0.313 1.131 0s0.312 0.819 0 1.131l-11.998 12c-0.156 0.156-0.361 0.234-0.566 0.234z"></path>
      <path d="M21.997 22.8c-0.205 0-0.409-0.078-0.566-0.234l-12.001-12c-0.313-0.313-0.313-0.819 0-1.131s0.819-0.313 1.131 0l12.001 12c0.312 0.312 0.312 0.819 0 1.131-0.156 0.156-0.361 0.234-0.566 0.234z"></path>
      </symbol>
      <symbol id="icon-Downtime" viewBox="0 0 32 32">
      <title>Downtime</title>
      <path d="M16.909 31.777c-0.455 0-0.911-0.019-1.371-0.056-8.006-0.562-14.723-7.278-15.284-15.291-0.541-6.639 2.982-12.917 8.977-15.987 0.924-0.412 1.908-0.217 2.543 0.475 0.62 0.677 0.722 1.656 0.258 2.494-1.357 2.44-1.864 5.059-1.509 7.785 0.734 5.262 5.107 9.634 10.398 10.391 2.681 0.363 5.45-0.225 7.599-1.616 0.928-0.514 1.983-0.38 2.676 0.314 0.666 0.666 0.794 1.639 0.327 2.481-2.714 5.564-8.358 9.008-14.612 9.009zM10.192 1.825c-0.084 0-0.174 0.018-0.271 0.061-5.377 2.754-8.561 8.423-8.071 14.423 0.507 7.243 6.572 13.309 13.809 13.816 6.146 0.508 11.804-2.688 14.445-8.095 0.172-0.312 0.072-0.502-0.039-0.612-0.147-0.148-0.416-0.244-0.724-0.073-2.416 1.567-5.58 2.247-8.639 1.828h-0.005c-6.080-0.867-10.916-5.704-11.759-11.762-0.402-3.080 0.17-6.030 1.695-8.775 0.178-0.322 0.052-0.537-0.038-0.636-0.088-0.096-0.228-0.174-0.402-0.174z"></path>
      </symbol>
      <symbol id="icon-Facial" viewBox="0 0 32 32">
      <title>Facial</title>
      <path d="M4.2 15.6c0-4.769 5.38-7.102 10.738-7.373l0.005-0c0.847-0.062 1.643-0.428 2.242-1.030s0.959-1.401 1.017-2.25v-0.002c-0-0.357-0.001-0.868-0.273-1.375-0.082-0.081-0.146-0.179-0.187-0.289-0.604-0.783-2.003-1.481-5.241-1.481-2.209 0-4.333 0.67-6.141 1.938s-3.163 3.034-3.918 5.111c-0.754 2.076-0.848 4.301-0.274 6.434 0.395 1.469 1.087 2.816 2.033 3.975v-3.657zM19.673 3.8c0.085 0.371 0.127 0.771 0.127 1.2-0.086 1.287-0.611 2.449-1.481 3.324l-0.004 0.004c4.912 0.549 9.485 2.875 9.485 7.272v4.291c0.905-1.030 1.58-2.243 1.984-3.579 0.591-1.952 0.556-4.004-0.1-5.934-0.656-1.931-1.88-3.579-3.537-4.766-1.656-1.187-3.608-1.813-5.648-1.813h-0.825zM27.641 22.258c-0.391 2.331-1.492 4.48-3.198 6.185-2.164 2.164-5.040 3.356-8.101 3.356-3.244 0-6.294-1.264-8.587-3.558-1.764-1.763-2.941-4.056-3.372-6.498-1.83-1.605-3.128-3.689-3.762-6.046-0.66-2.452-0.551-5.009 0.316-7.396s2.424-4.418 4.503-5.875c2.078-1.456 4.52-2.227 7.059-2.227 3.181 0 5.304 0.659 6.405 2h1.596c2.375 0 4.65 0.73 6.578 2.112 1.931 1.382 3.356 3.302 4.122 5.551 0.764 2.249 0.805 4.639 0.116 6.913-0.657 2.168-1.924 4.058-3.674 5.482zM26.113 21.66c0.057-0.433 0.087-0.873 0.087-1.318v-4.742c0-3.808-5.131-5.8-10.2-5.8s-10.2 1.992-10.2 5.8v4.056c0 2.775 1.125 5.492 3.088 7.455 1.991 1.992 4.639 3.089 7.456 3.089 2.632 0 5.107-1.025 6.969-2.888 1.52-1.52 2.482-3.448 2.785-5.537 0.003-0.039 0.008-0.077 0.016-0.115zM8.313 19.688c0.717 0.717 1.672 1.112 2.687 1.112s1.97-0.395 2.687-1.112c0.708-0.708 1.113-1.688 1.113-2.688s-0.405-1.98-1.113-2.687c-1.414-1.416-3.959-1.416-5.373 0-0.708 0.707-1.113 1.687-1.113 2.687s0.405 1.98 1.113 2.688zM9.445 15.445c0.409-0.409 0.977-0.645 1.555-0.645s1.146 0.235 1.555 0.645c0.409 0.409 0.645 0.977 0.645 1.555s-0.235 1.147-0.645 1.556c-0.819 0.819-2.292 0.819-3.111 0-0.409-0.409-0.645-0.977-0.645-1.556s0.235-1.146 0.645-1.555zM21 20.8c-1.002 0-1.981-0.406-2.688-1.112s-1.112-1.686-1.112-2.688c0-1.015 0.395-1.97 1.112-2.687 1.416-1.416 3.959-1.416 5.375 0 0.717 0.717 1.112 1.672 1.112 2.687 0 1.002-0.406 1.981-1.112 2.688s-1.686 1.112-2.688 1.112zM21 14.8c-0.58 0-1.147 0.235-1.556 0.645s-0.644 0.976-0.644 1.555 0.234 1.147 0.644 1.556c0.819 0.819 2.294 0.819 3.112 0 0.409-0.409 0.644-0.977 0.644-1.556s-0.234-1.146-0.644-1.555c-0.409-0.409-0.977-0.645-1.556-0.645zM13.642 25.716c-0.395-0.199-0.555-0.678-0.358-1.073 0.198-0.394 0.678-0.556 1.073-0.358 1.012 0.506 2.272 0.506 3.284 0 0.392-0.197 0.875-0.037 1.073 0.358 0.197 0.395 0.038 0.875-0.358 1.073-0.727 0.364-1.542 0.556-2.358 0.556s-1.631-0.192-2.358-0.556z"></path>
      </symbol>
      <symbol id="icon-Hair-Skin" viewBox="0 0 32 32">
      <title>Hair-Skin</title>
      <path d="M24.033 19.776c-1.548 0-3.005-0.603-4.1-1.698-0.891-0.891-1.467-2.062-1.644-3.301h-4.51c-0.17 1.245-0.74 2.396-1.645 3.301-2.191 2.191-6.010 2.191-8.202 0-0.905-0.904-1.473-2.055-1.644-3.301h-1.255c-0.442 0-0.8-0.358-0.8-0.8s0.358-0.8 0.8-0.8h2c0.212 0 0.416 0.084 0.566 0.234s0.234 0.353 0.234 0.566c0 1.122 0.437 2.177 1.23 2.97 1.587 1.584 4.354 1.584 5.94 0 0.782-0.782 1.23-1.864 1.23-2.97 0-0.442 0.358-0.8 0.8-0.8h5.999c0.442 0 0.8 0.358 0.8 0.8 0 1.105 0.448 2.187 1.231 2.97 1.575 1.575 4.363 1.572 5.939 0 0.792-0.793 1.23-1.848 1.23-2.97 0-0.442 0.358-0.8 0.8-0.8h1.934c0.442 0 0.8 0.358 0.8 0.8s-0.358 0.8-0.8 0.8h-1.189c-0.17 1.246-0.739 2.396-1.644 3.301-1.095 1.095-2.552 1.698-4.102 1.698z"></path>
      <path d="M8.033 15.777c-0.402 0-0.749-0.302-0.795-0.712-0.042-0.38-0.998-9.363 2.155-13.568 0.266-0.354 0.768-0.424 1.12-0.16 0.354 0.265 0.426 0.766 0.16 1.12-2.773 3.698-1.855 12.345-1.845 12.432 0.048 0.439-0.268 0.834-0.707 0.884-0.030 0.003-0.060 0.005-0.089 0.005z"></path>
      <path d="M24.031 15.777c-0.402 0-0.748-0.302-0.794-0.712-0.042-0.38-0.998-9.363 2.155-13.568 0.267-0.355 0.769-0.423 1.12-0.16 0.353 0.265 0.425 0.766 0.161 1.12-2.775 3.698-1.855 12.345-1.845 12.432 0.048 0.439-0.269 0.834-0.708 0.884-0.030 0.003-0.059 0.005-0.089 0.005z"></path>
      <path d="M2.034 30.277c-0.348 0-0.675-0.134-0.92-0.38-0.242-0.242-0.38-0.577-0.38-0.92 0-0.342 0.138-0.677 0.38-0.919s0.577-0.381 0.92-0.381v2.6z"></path>
      <path d="M2.034 30.277v-2.6c0.341 0 0.677 0.139 0.919 0.381s0.381 0.577 0.381 0.919c0 0.342-0.139 0.678-0.381 0.92-0.245 0.245-0.571 0.38-0.919 0.38z"></path>
      <path d="M6.034 25.277c-0.348 0-0.675-0.134-0.92-0.38-0.242-0.242-0.38-0.577-0.38-0.92 0-0.342 0.138-0.677 0.38-0.919s0.577-0.381 0.92-0.381v2.6z"></path>
      <path d="M6.034 25.277v-2.6c0.341 0 0.677 0.139 0.919 0.381s0.381 0.577 0.381 0.919c0 0.342-0.139 0.678-0.381 0.92-0.245 0.245-0.571 0.38-0.919 0.38z"></path>
      <path d="M11.034 30.277c-0.348 0-0.675-0.134-0.92-0.38-0.242-0.242-0.38-0.577-0.38-0.92 0-0.342 0.138-0.677 0.38-0.919s0.577-0.381 0.92-0.381v2.6z"></path>
      <path d="M11.034 30.277v-2.6c0.341 0 0.677 0.139 0.919 0.381s0.381 0.577 0.381 0.919c0 0.342-0.139 0.678-0.381 0.92-0.245 0.245-0.571 0.38-0.919 0.38z"></path>
      <path d="M16.034 25.277c-0.348 0-0.675-0.134-0.92-0.38-0.242-0.242-0.38-0.577-0.38-0.92 0-0.342 0.138-0.677 0.38-0.919s0.577-0.381 0.92-0.381v2.6z"></path>
      <path d="M16.034 25.277v-2.6c0.347 0 0.673 0.136 0.919 0.381 0.242 0.242 0.381 0.577 0.381 0.919s-0.139 0.678-0.381 0.92c-0.244 0.245-0.571 0.38-0.919 0.38z"></path>
      <path d="M21.033 30.277c-0.342 0-0.678-0.139-0.919-0.38-0.242-0.242-0.381-0.578-0.381-0.92s0.139-0.677 0.381-0.919c0.242-0.242 0.576-0.381 0.919-0.381v2.6z"></path>
      <path d="M21.033 30.277v-2.6c0.342 0 0.678 0.139 0.92 0.381 0.241 0.241 0.38 0.577 0.38 0.919 0 0.344-0.139 0.68-0.38 0.92s-0.577 0.38-0.92 0.38z"></path>
      <path d="M26.033 25.277c-0.342 0-0.678-0.139-0.919-0.38-0.242-0.242-0.381-0.578-0.381-0.92s0.139-0.677 0.381-0.919c0.242-0.242 0.576-0.381 0.919-0.381v2.6z"></path>
      <path d="M26.033 25.277v-2.6c0.342 0 0.678 0.139 0.92 0.381 0.241 0.241 0.38 0.577 0.38 0.919 0 0.344-0.139 0.68-0.38 0.92s-0.577 0.38-0.92 0.38z"></path>
      <path d="M30.033 30.277c-0.342 0-0.678-0.139-0.919-0.38-0.242-0.242-0.381-0.578-0.381-0.92s0.139-0.677 0.381-0.919c0.242-0.242 0.576-0.381 0.919-0.381v2.6z"></path>
      <path d="M30.033 30.277v-2.6c0.342 0 0.678 0.139 0.92 0.381 0.241 0.241 0.38 0.577 0.38 0.919 0 0.344-0.139 0.68-0.38 0.92s-0.577 0.38-0.92 0.38z"></path>
      </symbol>
      <symbol id="icon-Heart" viewBox="0 0 32 32">
      <title>Heart</title>
      <path d="M16 29.925c-0.218 0-0.427-0.089-0.577-0.247l-12.784-13.332c-1.238-1.237-2.048-2.82-2.332-4.564-0.283-1.746-0.014-3.503 0.777-5.083 0.59-1.179 1.463-2.216 2.527-2.998s2.313-1.305 3.615-1.517c1.299-0.21 2.653-0.109 3.909 0.296 1.257 0.407 2.413 1.114 3.345 2.046l1.523 1.521 1.522-1.521c0.933-0.933 2.091-1.64 3.344-2.045 1.255-0.406 2.603-0.509 3.911-0.297 1.302 0.212 2.552 0.736 3.614 1.517s1.937 1.818 2.527 2.998c0.789 1.58 1.058 3.337 0.775 5.079-0.283 1.745-1.092 3.327-2.341 4.576l-12.774 13.324c-0.151 0.158-0.359 0.247-0.577 0.247zM8.559 3.677c-0.361 0-0.723 0.029-1.079 0.087-1.052 0.171-2.063 0.595-2.923 1.227-0.859 0.633-1.566 1.471-2.043 2.424-0.64 1.278-0.857 2.699-0.628 4.111s0.884 2.691 1.895 3.701l12.219 12.742 12.208-12.734c1.022-1.022 1.677-2.302 1.906-3.712 0.227-1.409 0.009-2.83-0.628-4.108-0.477-0.954-1.183-1.792-2.042-2.424s-1.87-1.055-2.924-1.227c-1.055-0.173-2.147-0.088-3.162 0.24-1.014 0.327-1.95 0.9-2.705 1.654l-2.088 2.087c-0.312 0.312-0.819 0.312-1.131 0l-2.088-2.087c-0.753-0.754-1.688-1.326-2.705-1.655-0.67-0.216-1.377-0.326-2.082-0.326z"></path>
      </symbol>
      <symbol id="icon-Hospital-Board" viewBox="0 0 32 32">
      <title>Hospital-Board</title>
      <path d="M16 31.8c-4.222 0-8.189-1.644-11.172-4.628-2.984-2.983-4.628-6.952-4.628-11.172s1.644-8.188 4.628-11.172c2.984-2.984 6.951-4.628 11.172-4.628s8.189 1.644 11.172 4.628c2.984 2.983 4.628 6.95 4.628 11.172s-1.644 8.189-4.628 11.172c-2.983 2.984-6.95 4.628-11.172 4.628zM16 1.8c-3.793 0-7.359 1.477-10.041 4.159s-4.159 6.248-4.159 10.041c0 3.794 1.477 7.359 4.159 10.041 2.681 2.683 6.247 4.159 10.041 4.159s7.359-1.476 10.041-4.159c2.683-2.681 4.159-6.247 4.159-10.041s-1.476-7.359-4.159-10.041c-2.681-2.682-6.247-4.159-10.041-4.159z"></path>
      <path d="M18 25.8h-4c-0.474 0-0.938-0.192-1.273-0.527-0.341-0.344-0.527-0.795-0.527-1.273v-4.2h-4.2c-0.474 0-0.938-0.192-1.273-0.527-0.341-0.344-0.527-0.795-0.527-1.273v-4c0-0.473 0.192-0.938 0.527-1.273s0.799-0.527 1.273-0.527h4.2v-4.2c0-0.473 0.192-0.938 0.527-1.273s0.799-0.527 1.273-0.527h4c0.478 0 0.93 0.187 1.272 0.525 0.336 0.337 0.528 0.801 0.528 1.275v4.2h4.2c0.478 0 0.93 0.187 1.272 0.525 0.336 0.337 0.528 0.801 0.528 1.275v4c0 0.478-0.186 0.93-0.524 1.272-0.347 0.342-0.798 0.528-1.276 0.528h-4.2v4.2c0 0.478-0.186 0.93-0.524 1.272-0.347 0.342-0.798 0.528-1.276 0.528zM8 13.8l-0.2 0.2v4l0.2 0.2h5c0.442 0 0.8 0.358 0.8 0.8v5l0.2 0.2h4l0.2-0.2v-5c0-0.442 0.358-0.8 0.8-0.8h5l0.2-0.2v-4l-0.2-0.2h-5c-0.442 0-0.8-0.358-0.8-0.8v-5l-0.2-0.2h-4l-0.2 0.2v5c0 0.442-0.358 0.8-0.8 0.8h-5z"></path>
      </symbol>
      <symbol id="icon-Hourglass" viewBox="0 0 32 32">
      <title>Hourglass</title>
      <path d="M16 16.8c-0.083 0-0.166-0.013-0.246-0.039-4.834-1.561-7.69-4.697-8.491-9.32-0.001-0.005-0.002-0.009-0.002-0.013-0.062-0.398-0.036-0.813 0.076-1.2 0.114-0.394 0.306-0.749 0.572-1.057s0.588-0.549 0.959-0.719c0.373-0.169 0.759-0.253 1.176-0.252h11.918c0.372 0 0.805 0.084 1.17 0.251 0.373 0.17 0.697 0.412 0.963 0.721 0.264 0.308 0.461 0.673 0.57 1.055 0.111 0.387 0.137 0.801 0.077 1.198-0.805 4.639-3.661 7.775-8.495 9.336-0.080 0.026-0.163 0.039-0.246 0.039zM8.841 7.174c0.689 3.966 3.032 6.58 7.159 7.983 4.13-1.404 6.473-4.020 7.162-7.99 0.024-0.155 0.011-0.333-0.036-0.499-0.047-0.163-0.133-0.32-0.247-0.454-0.113-0.13-0.252-0.234-0.411-0.307-0.155-0.070-0.327-0.107-0.497-0.107h-11.934c-0.183 0.001-0.349 0.035-0.508 0.107s-0.298 0.177-0.411 0.309c-0.115 0.133-0.198 0.286-0.246 0.455-0.047 0.162-0.059 0.337-0.033 0.504z"></path>
      <path d="M27 1.8h-22c-0.442 0-0.8-0.358-0.8-0.8s0.358-0.8 0.8-0.8h22c0.442 0 0.8 0.358 0.8 0.8s-0.358 0.8-0.8 0.8z"></path>
      <path d="M21.972 27.8c-0.005 0-0.009 0-0.016 0h-11.917c-0.456-0.028-0.802-0.083-1.172-0.252-0.364-0.164-0.697-0.414-0.959-0.719-0.268-0.312-0.46-0.667-0.571-1.056-0.111-0.386-0.138-0.8-0.077-1.197 0.803-4.639 3.66-7.775 8.494-9.338 0.159-0.052 0.333-0.052 0.492 0 4.834 1.563 7.69 4.698 8.491 9.32 0.064 0.428 0.037 0.831-0.077 1.219-0.109 0.386-0.301 0.741-0.567 1.050-0.266 0.308-0.599 0.556-0.964 0.72-0.364 0.167-0.755 0.252-1.158 0.252zM16 16.843c-4.13 1.405-6.473 4.021-7.161 7.99-0.023 0.156-0.012 0.334 0.035 0.5s0.13 0.319 0.247 0.455c0.111 0.128 0.252 0.233 0.408 0.303 0.162 0.075 0.391 0.105 0.505 0.109h11.934c0.176 0 0.344-0.036 0.501-0.108s0.3-0.178 0.412-0.308c0.113-0.131 0.195-0.284 0.244-0.452 0.048-0.169 0.059-0.342 0.033-0.519-0.684-3.95-3.028-6.566-7.158-7.971z"></path>
      <path d="M27 31.8h-22c-0.442 0-0.8-0.358-0.8-0.8s0.358-0.8 0.8-0.8h22c0.442 0 0.8 0.358 0.8 0.8s-0.358 0.8-0.8 0.8z"></path>
      </symbol>
      <symbol id="icon-House" viewBox="0 0 32 32">
      <title>House</title>
      <path d="M27.003 30.392h-8c-0.442 0-0.8-0.358-0.8-0.8v-8c0-0.322-0.125-0.622-0.35-0.848-0.223-0.223-0.533-0.352-0.849-0.352h-2c-0.32 0-0.622 0.125-0.848 0.352s-0.352 0.528-0.352 0.848v8c0 0.442-0.358 0.8-0.8 0.8h-8c-0.442 0-0.8-0.358-0.8-0.8v-11c0-0.442 0.358-0.8 0.8-0.8s0.8 0.358 0.8 0.8v10.2h6.4v-7.2c0-0.748 0.291-1.452 0.82-1.98 0.529-0.53 1.232-0.82 1.98-0.82h2c0.737 0 1.459 0.298 1.98 0.82 0.528 0.528 0.819 1.231 0.819 1.98v7.2h6.4v-10.2c0-0.442 0.358-0.8 0.8-0.8s0.8 0.358 0.8 0.8v11c0 0.442-0.358 0.8-0.8 0.8z"></path>
      <path d="M1.004 17.392c-0.205 0-0.409-0.078-0.566-0.234-0.313-0.312-0.313-0.819 0-1.131l13.585-13.585c0.262-0.262 0.567-0.466 0.909-0.608 0.689-0.283 1.456-0.282 2.142-0.001 0.343 0.142 0.649 0.347 0.91 0.609l13.584 13.585c0.312 0.312 0.312 0.819 0 1.131s-0.819 0.313-1.131 0l-13.584-13.585c-0.112-0.112-0.244-0.201-0.39-0.261-0.294-0.12-0.624-0.121-0.92 0.001-0.145 0.059-0.276 0.148-0.388 0.26l-13.585 13.585c-0.156 0.156-0.361 0.234-0.566 0.234z"></path>
      </symbol>
      <symbol id="icon-Injectable" viewBox="0 0 32 32">
      <title>Injectable</title>
      <path d="M30.891 7.847l-2.1-2.1c-0.007-0.007-0.013-0.014-0.020-0.021l-2.83-2.83c-0.007-0.007-0.013-0.013-0.020-0.019l-2.102-2.102c-0.313-0.313-0.819-0.313-1.131 0s-0.312 0.819 0 1.131l1.556 1.556-3.818 3.819-1.555-1.555c-0.008-0.008-0.016-0.015-0.024-0.023l-2.098-2.098c-0.313-0.313-0.819-0.313-1.131 0s-0.313 0.819 0 1.131l1.556 1.556-11.456 11.454c-0.263 0.262-0.466 0.569-0.606 0.906-0.143 0.342-0.215 0.703-0.215 1.073s0.072 0.731 0.214 1.070c0.14 0.341 0.351 0.655 0.607 0.909l0.143 0.143-2.971 2.97c-0.15 0.15-0.234 0.353-0.234 0.566s0.084 0.416 0.234 0.566l0.848 0.848-2.969 2.969c-0.313 0.313-0.313 0.819 0 1.131 0.156 0.156 0.361 0.234 0.566 0.234s0.409-0.078 0.566-0.234l2.969-2.969 0.85 0.85c0.15 0.15 0.353 0.234 0.566 0.234s0.416-0.084 0.566-0.234l2.969-2.971 0.141 0.141 0.001 0.002c0.52 0.517 1.239 0.814 1.97 0.814h0.008c0.748 0 1.45-0.292 1.977-0.82l3.469-3.469c0.024-0.019 0.047-0.040 0.069-0.062s0.043-0.045 0.062-0.069l4.116-4.117c0.022-0.018 0.044-0.037 0.064-0.058s0.040-0.042 0.058-0.064l3.615-3.616 1.56 1.56c0.156 0.156 0.361 0.234 0.566 0.234s0.409-0.078 0.566-0.234c0.313-0.313 0.313-0.819 0-1.131l-3.677-3.678 3.82-3.817 1.555 1.555c0.156 0.156 0.361 0.234 0.566 0.234s0.409-0.078 0.566-0.234c0.312-0.313 0.312-0.819 0-1.131zM6.285 27.082l-0.814-0.814c-0.011-0.013-0.023-0.026-0.035-0.038s-0.025-0.024-0.038-0.035l-0.812-0.812 2.405-2.403 1.697 1.697-2.403 2.405zM21.128 16.469l-2.259-2.258c-0.313-0.313-0.819-0.313-1.131 0s-0.313 0.819 0 1.131l2.259 2.259-3.112 3.112-2.258-2.258c-0.313-0.313-0.819-0.313-1.131 0s-0.313 0.819 0 1.131l2.258 2.259-2.969 2.97c-0.226 0.227-0.526 0.352-0.848 0.352h-0.003c-0.314 0-0.621-0.127-0.843-0.348l-4.245-4.245c-0.109-0.108-0.198-0.24-0.259-0.387-0.059-0.144-0.091-0.302-0.091-0.458s0.032-0.314 0.092-0.461c0.060-0.144 0.148-0.275 0.26-0.388l11.456-11.454 5.935 5.935-3.111 3.111zM23.254 10.108l-1.697-1.696 3.818-3.819 1.699 1.698-3.82 3.816z"></path>
      </symbol>
      <symbol id="icon-laser" viewBox="0 0 32 32">
      <title>laser</title>
      <path d="M24.058 23.816c0.345 0 0.691-0.131 0.953-0.392l0.883-0.884c0.255-0.255 0.397-0.592 0.397-0.953s-0.142-0.698-0.395-0.952l-0.818-0.818 0.105-0.105c0.43-0.434 0.516-1.103 0.208-1.63l-3.491-5.972c-0.006-0.011-0.016-0.019-0.025-0.027-0.008-0.007-0.016-0.014-0.022-0.022-0.009-0.012-0.016-0.025-0.023-0.038-0.012-0.021-0.024-0.042-0.041-0.059l-5.743-5.742c-1.374-1.373-3.609-1.374-4.985 0l-0.672 0.672-3.763-3.796c-0.453-0.456-1.080-0.719-1.72-0.719-1.342 0-2.433 1.101-2.433 2.454v6.973c0 0.978-0.789 1.773-1.758 1.773-0.394 0-0.714 0.323-0.714 0.72s0.32 0.72 0.714 0.72c1.757 0 3.187-1.442 3.187-3.214v-6.973c0-0.559 0.451-1.013 1.005-1.013 0.264 0 0.524 0.108 0.71 0.297l3.759 3.792-0.681 0.681c-1.374 1.374-1.374 3.611 0 4.985l5.742 5.742c0.016 0.016 0.035 0.027 0.054 0.038 0.012 0.007 0.025 0.014 0.036 0.023 0.009 0.007 0.017 0.015 0.024 0.024 0.009 0.011 0.018 0.021 0.031 0.028l5.971 3.491c0.212 0.124 0.447 0.184 0.68 0.184 0.348 0 0.694-0.136 0.952-0.395l0.104-0.104 0.82 0.821c0.263 0.259 0.606 0.391 0.95 0.391zM9.713 9.607l2.367-2.367c0.406-0.407 0.94-0.61 1.473-0.61s1.068 0.203 1.474 0.61l5.233 5.232-5.315 5.316-5.233-5.233c-0.813-0.813-0.813-2.135 0-2.948zM16.114 18.656l5.021-5.021 3.027 5.058-2.881 2.981-5.167-3.019zM24.086 20.807l0.791 0.712-0.752 0.886-0.818-0.819 0.779-0.779zM31.293 21.808c-0.383-0.061-0.761 0.208-0.822 0.6-0.216 1.384-0.872 2.698-1.906 3.759-1.361 1.361-2.939 1.778-3.758 1.906-0.394 0.061-0.662 0.43-0.6 0.822 0.055 0.355 0.361 0.609 0.709 0.609 0.037 0 0.075-0.003 0.112-0.009 0.992-0.155 2.903-0.661 4.625-2.381 1.184-1.216 1.98-2.808 2.239-4.484 0.061-0.394-0.208-0.761-0.6-0.822zM27.862 25.366c-1.158 1.188-2.514 1.547-3.219 1.656-0.038 0.006-0.075 0.009-0.112 0.009-0.348 0-0.655-0.255-0.709-0.609-0.061-0.394 0.208-0.761 0.6-0.822 0.528-0.083 1.544-0.352 2.409-1.24 0.831-0.85 1.087-1.828 1.167-2.336 0.061-0.394 0.436-0.663 0.822-0.6 0.392 0.061 0.661 0.428 0.6 0.822-0.105 0.676-0.448 1.983-1.558 3.12z"></path>
      </symbol>
      <symbol id="icon-List" viewBox="0 0 32 32">
      <title>List</title>
      <path d="M10 14.813h12c0.442 0 0.8-0.358 0.8-0.8s-0.358-0.8-0.8-0.8h-12c-0.442 0-0.8 0.358-0.8 0.8s0.358 0.8 0.8 0.8z"></path>
      <path d="M22 18.212h-12c-0.442 0-0.8 0.358-0.8 0.8s0.358 0.8 0.8 0.8h12c0.442 0 0.8-0.358 0.8-0.8s-0.358-0.8-0.8-0.8z"></path>
      <path d="M22 23.212h-12c-0.442 0-0.8 0.358-0.8 0.8s0.358 0.8 0.8 0.8h12c0.442 0 0.8-0.358 0.8-0.8s-0.358-0.8-0.8-0.8z"></path>
      <path d="M27.98 6.020c-0.522-0.521-1.242-0.82-1.98-0.82h-4.255c-0.17-1.246-0.739-2.396-1.644-3.301-1.078-1.080-2.574-1.699-4.102-1.699-1.55 0-3.006 0.604-4.101 1.699-0.905 0.904-1.474 2.055-1.645 3.301h-4.255c-0.748 0-1.451 0.291-1.98 0.82s-0.82 1.232-0.82 1.98v21c0 0.738 0.299 1.458 0.82 1.98 0.529 0.53 1.232 0.82 1.98 0.82h20c0.738 0 1.458-0.298 1.98-0.82s0.82-1.242 0.82-1.98v-21c0-0.748-0.291-1.451-0.82-1.98zM27.2 29c0 0.316-0.128 0.625-0.352 0.848s-0.533 0.352-0.848 0.352h-20c-0.32 0-0.622-0.125-0.848-0.352-0.223-0.223-0.352-0.533-0.352-0.848v-21c0-0.32 0.125-0.622 0.352-0.848s0.528-0.352 0.848-0.352h5c0.442 0 0.8-0.358 0.8-0.8 0-1.122 0.437-2.177 1.23-2.97 1.575-1.577 4.367-1.574 5.94 0 0.792 0.793 1.23 1.848 1.23 2.97 0 0.442 0.358 0.8 0.8 0.8h5c0.316 0 0.625 0.128 0.848 0.352 0.227 0.227 0.352 0.528 0.352 0.848v21z"></path>
      <path d="M16.92 4.595c-0.245-0.245-0.572-0.38-0.92-0.38s-0.674 0.135-0.92 0.38-0.38 0.572-0.38 0.92 0.135 0.674 0.38 0.92 0.572 0.38 0.92 0.38 0.674-0.135 0.92-0.38 0.38-0.572 0.38-0.92-0.135-0.674-0.38-0.92z"></path>
      </symbol>
      <symbol id="icon-Location" viewBox="0 0 32 32">
      <title>Location</title>
      <path d="M16 14.8c-1.283 0-2.488-0.499-3.394-1.406-0.907-0.905-1.406-2.111-1.406-3.394s0.499-2.488 1.406-3.394c1.811-1.814 4.975-1.814 6.787 0 0.906 0.907 1.406 2.112 1.406 3.394s-0.5 2.487-1.406 3.394c-0.906 0.907-2.111 1.406-3.394 1.406zM16 6.8c-0.855 0-1.659 0.333-2.262 0.938s-0.938 1.408-0.938 2.263 0.333 1.659 0.938 2.262c1.208 1.209 3.316 1.209 4.525 0 0.605-0.605 0.937-1.408 0.937-2.262s-0.333-1.658-0.937-2.263c-0.605-0.605-1.408-0.938-2.263-0.938z"></path>
      <path d="M16 27.455c-0.205 0-0.409-0.048-0.591-0.142-0.177-0.091-0.334-0.223-0.454-0.383-2.638-3.634-8.755-12.539-8.755-16.93 0-2.617 1.020-5.078 2.87-6.93s4.313-2.87 6.93-2.87c2.617 0 5.078 1.020 6.93 2.87s2.87 4.313 2.87 6.93c0 4.519-6.695 14.094-8.747 16.92-0.127 0.169-0.284 0.302-0.462 0.392-0.182 0.094-0.387 0.142-0.591 0.142zM16 1.8c-2.19 0-4.249 0.853-5.798 2.402s-2.402 3.609-2.402 5.798c0 3.141 4.191 10.075 8.2 15.645 4.009-5.569 8.2-12.501 8.2-15.645 0-2.19-0.853-4.249-2.402-5.798s-3.608-2.402-5.798-2.402z"></path>
      <path d="M16 31.8c-7.355 0-14.8-1.648-14.8-4.8 0-2.267 3.612-3.464 6.644-4.069 0.432-0.089 0.855 0.195 0.941 0.628s-0.195 0.855-0.628 0.941c-3.93 0.784-5.356 1.925-5.356 2.5 0 1.117 4.534 3.2 13.2 3.2s13.2-2.083 13.2-3.2c0-0.578-1.434-1.722-5.383-2.503-0.434-0.086-0.716-0.506-0.63-0.939 0.084-0.434 0.516-0.724 0.939-0.63 3.045 0.602 6.673 1.797 6.673 4.072 0 3.152-7.445 4.8-14.8 4.8z"></path>
      </symbol>
      <symbol id="icon-Medical-Cross" viewBox="0 0 32 32">
      <title>Medical-Cross</title>
      <path d="M21.4 31.373h-10.8c-0.442 0-0.8-0.358-0.8-0.8v-8.373h-8.373c-0.442 0-0.8-0.358-0.8-0.8v-10.8c0-0.442 0.358-0.8 0.8-0.8h8.373v-8.373c0-0.442 0.358-0.8 0.8-0.8h10.8c0.442 0 0.8 0.358 0.8 0.8v8.373h8.373c0.442 0 0.8 0.358 0.8 0.8v10.8c0 0.442-0.358 0.8-0.8 0.8h-8.373v8.373c0 0.442-0.358 0.8-0.8 0.8zM11.4 29.773h9.2v-8.373c0-0.442 0.358-0.8 0.8-0.8h8.373v-9.2h-8.373c-0.442 0-0.8-0.358-0.8-0.8v-8.373h-9.2v8.373c0 0.442-0.358 0.8-0.8 0.8h-8.373v9.2h8.373c0.442 0 0.8 0.358 0.8 0.8v8.373z"></path>
      </symbol>
      <symbol id="icon-Medical-Paperwork" viewBox="0 0 32 32">
      <title>Medical-Paperwork</title>
      <path d="M26.567 31.678h-5.056c-0.442 0-0.8-0.358-0.8-0.8v-3.494h-3.494c-0.442 0-0.8-0.358-0.8-0.8v-5.058c0-0.442 0.358-0.8 0.8-0.8h3.494v-3.493c0-0.442 0.358-0.8 0.8-0.8h5.056c0.442 0 0.8 0.358 0.8 0.8v3.495h3.492c0.442 0 0.8 0.358 0.8 0.8v5.056c0 0.442-0.358 0.8-0.8 0.8h-3.492v3.494c0 0.442-0.358 0.8-0.8 0.8zM22.311 30.078h3.456v-3.494c0-0.442 0.358-0.8 0.8-0.8h3.492v-3.456h-3.492c-0.442 0-0.8-0.358-0.8-0.8v-3.494h-3.456v3.492c0 0.442-0.358 0.8-0.8 0.8h-3.494v3.458h3.494c0.442 0 0.8 0.358 0.8 0.8v3.494z"></path>
      <path d="M19.139 9.923h-13.999c-0.442 0-0.8-0.358-0.8-0.8s0.358-0.8 0.8-0.8h13.999c0.442 0 0.8 0.358 0.8 0.8s-0.358 0.8-0.8 0.8z"></path>
      <path d="M15.14 15.923h-10c-0.442 0-0.8-0.358-0.8-0.8s0.358-0.8 0.8-0.8h10c0.442 0 0.8 0.358 0.8 0.8s-0.358 0.8-0.8 0.8z"></path>
      <path d="M10.14 21.923h-5c-0.442 0-0.8-0.358-0.8-0.8s0.358-0.8 0.8-0.8h5c0.442 0 0.8 0.358 0.8 0.8s-0.358 0.8-0.8 0.8z"></path>
      <path d="M12.185 27.924h-9.045c-0.748 0-1.451-0.291-1.98-0.82-0.521-0.522-0.82-1.242-0.82-1.98v-22.001c0-0.748 0.291-1.451 0.82-1.98s1.232-0.82 1.98-0.82h14.172c0.746 0 1.449 0.291 1.979 0.819l3.83 3.83c0.528 0.528 0.819 1.23 0.819 1.979v5.502c0 0.442-0.358 0.8-0.8 0.8s-0.8-0.358-0.8-0.8v-5.502c0-0.321-0.125-0.622-0.35-0.848l-3.83-3.83c-0.227-0.226-0.528-0.351-0.848-0.351h-14.172c-0.32 0-0.622 0.125-0.848 0.352s-0.352 0.528-0.352 0.848v22.001c0 0.316 0.128 0.625 0.352 0.848 0.227 0.227 0.528 0.352 0.848 0.352h9.045c0.442 0 0.8 0.358 0.8 0.8s-0.358 0.8-0.8 0.8z"></path>
      </symbol>
      <symbol id="icon-Megaphone" viewBox="0 0 32 32">
      <title>Megaphone</title>
      <path d="M9 21.133h-3c-1.549 0-3.005-0.603-4.101-1.698s-1.699-2.551-1.699-4.101c0-1.549 0.603-3.006 1.699-4.102s2.552-1.698 4.101-1.698h3c0.442 0 0.8 0.358 0.8 0.8v9.999c0 0.442-0.358 0.8-0.8 0.8zM6 11.134c-1.122 0-2.177 0.437-2.97 1.23s-1.23 1.848-1.23 2.97c0 1.122 0.437 2.176 1.23 2.97s1.848 1.23 2.97 1.23h2.2v-8.399h-2.2z"></path>
      <path d="M27 27.133c-0.155 0-0.309-0.045-0.444-0.134l-1.513-1.008c-4.766-3.177-10.313-4.856-16.044-4.858-0.442 0-0.8-0.358-0.8-0.8v-9.999c0-0.441 0.358-0.8 0.8-0.8 5.729-0.001 11.276-1.68 16.044-4.858l1.513-1.008c0.247-0.163 0.562-0.179 0.822-0.040s0.422 0.41 0.422 0.705v21.999c0 0.295-0.163 0.566-0.422 0.705-0.119 0.064-0.248 0.095-0.378 0.095zM9.8 19.544c5.763 0.15 11.323 1.911 16.131 5.116l0.269 0.18v-19.011l-0.269 0.179c-4.808 3.205-10.37 4.966-16.131 5.116v8.42z"></path>
      <path d="M31 18.134c-0.442 0-0.8-0.359-0.8-0.801v-4c0-0.442 0.358-0.8 0.8-0.8s0.8 0.358 0.8 0.8v4c0 0.441-0.358 0.801-0.8 0.801z"></path>
      <path d="M12 28.133c-0.198 0-0.396-0.073-0.551-0.22-1.034-0.983-1.842-2.145-2.404-3.455-0.562-1.311-0.846-2.698-0.845-4.125 0-0.442 0.359-0.8 0.8-0.8s0.8 0.359 0.8 0.8c-0.001 1.209 0.24 2.384 0.716 3.494 0.476 1.111 1.161 2.095 2.035 2.927 0.32 0.305 0.334 0.811 0.029 1.131-0.157 0.166-0.368 0.248-0.58 0.248z"></path>
      </symbol>
      <symbol id="icon-number" viewBox="0 0 32 32">
      <title>number</title>
      <path d="M31 11.797h-26c-0.442 0-0.8-0.358-0.8-0.8s0.358-0.8 0.8-0.8h26c0.442 0 0.8 0.358 0.8 0.8s-0.358 0.8-0.8 0.8z"></path>
      <path d="M27 23.797h-26c-0.442 0-0.8-0.358-0.8-0.8s0.358-0.8 0.8-0.8h26c0.442 0 0.8 0.358 0.8 0.8s-0.358 0.8-0.8 0.8z"></path>
      <path d="M6 31.797c-0.084 0-0.169-0.012-0.253-0.041-0.419-0.141-0.645-0.594-0.505-1.012l10-30c0.14-0.419 0.59-0.645 1.012-0.505 0.419 0.139 0.645 0.592 0.505 1.012l-10 30c-0.112 0.334-0.423 0.547-0.759 0.547z"></path>
      <path d="M16 31.797c-0.084 0-0.169-0.012-0.253-0.041-0.419-0.141-0.645-0.594-0.505-1.012l9.999-30c0.142-0.42 0.597-0.644 1.013-0.505 0.419 0.139 0.645 0.592 0.506 1.012l-10.001 30c-0.112 0.334-0.424 0.547-0.759 0.547z"></path>
      </symbol>
      <symbol id="icon-Percent" viewBox="0 0 32 32">
      <title>Percent</title>
      <path d="M16 31.8c-4.222 0-8.189-1.644-11.172-4.628-2.984-2.983-4.628-6.952-4.628-11.172s1.644-8.188 4.628-11.172c2.984-2.984 6.951-4.628 11.172-4.628s8.189 1.644 11.172 4.628c2.984 2.983 4.628 6.95 4.628 11.172s-1.644 8.189-4.628 11.172c-2.983 2.984-6.95 4.628-11.172 4.628zM16 1.8c-3.793 0-7.359 1.477-10.041 4.159s-4.159 6.248-4.159 10.041c0 3.794 1.477 7.359 4.159 10.041 2.681 2.683 6.247 4.159 10.041 4.159s7.359-1.476 10.041-4.159c2.683-2.681 4.159-6.247 4.159-10.041s-1.476-7.359-4.159-10.041c-2.681-2.682-6.247-4.159-10.041-4.159z"></path>
      <path d="M10.667 22.133c-0.205 0-0.409-0.078-0.566-0.234-0.313-0.312-0.313-0.819 0-1.131l10.666-10.666c0.312-0.313 0.819-0.313 1.131 0s0.312 0.819 0 1.131l-10.666 10.666c-0.156 0.156-0.361 0.234-0.566 0.234z"></path>
      <path d="M11.666 14.8c-0.413 0-0.816-0.080-1.198-0.238s-0.724-0.387-1.017-0.68-0.521-0.635-0.679-1.017c-0.159-0.382-0.239-0.785-0.239-1.198 0-0.837 0.326-1.623 0.918-2.215 1.181-1.184 3.249-1.185 4.432 0.001 0.591 0.591 0.917 1.377 0.917 2.214 0 0.416-0.080 0.82-0.24 1.201-0.157 0.38-0.385 0.722-0.678 1.015-0.291 0.291-0.633 0.521-1.016 0.68-0.381 0.158-0.785 0.238-1.199 0.238zM11.666 10.133c-0.41 0-0.795 0.159-1.084 0.448-0.291 0.291-0.45 0.675-0.45 1.084 0 0.202 0.039 0.399 0.117 0.587s0.189 0.355 0.332 0.498c0.144 0.144 0.311 0.255 0.498 0.333 0.374 0.155 0.802 0.155 1.173 0 0.188-0.077 0.355-0.189 0.497-0.332 0.144-0.144 0.255-0.311 0.333-0.498s0.117-0.384 0.117-0.588c0-0.409-0.159-0.794-0.449-1.084s-0.674-0.449-1.084-0.449z"></path>
      <path d="M20.333 23.467c-0.825 0-1.631-0.334-2.216-0.919-0.591-0.591-0.917-1.378-0.917-2.216s0.326-1.625 0.917-2.216c1.181-1.183 3.25-1.183 4.431 0 0.584 0.584 0.919 1.391 0.919 2.216s-0.334 1.631-0.919 2.216c-0.584 0.584-1.391 0.919-2.216 0.919zM20.333 18.8c-0.409 0-0.795 0.159-1.084 0.448s-0.448 0.675-0.448 1.084c0 0.409 0.159 0.795 0.448 1.084 0.572 0.572 1.597 0.572 2.169 0 0.286-0.286 0.45-0.681 0.45-1.084s-0.164-0.798-0.45-1.084c-0.289-0.289-0.675-0.448-1.084-0.448z"></path>
      </symbol>
      <symbol id="icon-Price-tag" viewBox="0 0 32 32">
      <title>Price-tag</title>
      <path d="M18.902 31.284c-0.15 0-0.3-0.019-0.445-0.056-0.309-0.077-0.599-0.241-0.83-0.472l-15.507-15.507c-0.907-0.907-1.406-2.112-1.406-3.393v-8.345c0-0.748 0.291-1.451 0.82-1.98s1.232-0.82 1.98-0.82h8.344c1.283 0.001 2.488 0.5 3.394 1.406l15.507 15.507c0.231 0.231 0.395 0.52 0.473 0.838 0.080 0.317 0.070 0.648-0.023 0.959-0.091 0.303-0.267 0.584-0.509 0.806-0.252 0.227-0.548 0.375-0.866 0.436l-7.641 1.528-1.528 7.644c-0.064 0.32-0.214 0.617-0.433 0.858-0.216 0.241-0.498 0.42-0.814 0.514-0.167 0.050-0.34 0.076-0.516 0.076zM18.961 29.673l0.919 0.006-0.784-0.156 1.633-8.167c0.063-0.317 0.311-0.564 0.628-0.628l8.169-1.634 0.152-0.141-0.050-0.197-15.507-15.507c-0.604-0.604-1.408-0.937-2.263-0.938h-8.343c-0.32 0-0.622 0.125-0.848 0.352s-0.352 0.528-0.352 0.848v8.345c0 0.841 0.341 1.666 0.938 2.262l15.507 15.507c0.005 0 0.199 0.048 0.203 0.048z"></path>
      <path d="M8.513 11.312c-0.748 0-1.452-0.291-1.98-0.821-0.528-0.528-0.82-1.231-0.82-1.979s0.291-1.451 0.82-1.98c1.058-1.058 2.902-1.058 3.959 0 0.529 0.529 0.82 1.232 0.82 1.98s-0.291 1.451-0.82 1.98c-0.527 0.529-1.231 0.82-1.98 0.82zM8.513 7.312c-0.32 0-0.622 0.125-0.848 0.352s-0.352 0.528-0.352 0.848c0 0.32 0.125 0.622 0.352 0.848 0.453 0.453 1.245 0.452 1.696 0.001 0.227-0.227 0.352-0.529 0.352-0.849s-0.125-0.622-0.352-0.848c-0.227-0.227-0.528-0.352-0.848-0.352z"></path>
      </symbol>
      <symbol id="icon-Recovery" viewBox="0 0 32 32">
      <title>Recovery</title>
      <path d="M30.409 11.645c-1.016-2.973-3.053-5.51-5.736-7.145-2.68-1.634-5.869-2.282-8.978-1.822-3.107 0.459-5.972 2.002-8.066 4.344-0.295 0.33-0.266 0.835 0.063 1.13s0.835 0.266 1.13-0.063c1.846-2.064 4.371-3.423 7.109-3.828 2.742-0.402 5.548 0.165 7.913 1.605s4.158 3.677 5.055 6.296c0.895 2.619 0.844 5.486-0.144 8.072s-2.861 4.756-5.276 6.112c-2.414 1.356-5.244 1.825-7.963 1.324-2.724-0.503-5.198-1.952-6.968-4.080-1.573-1.889-2.514-4.226-2.706-6.665l1.878 2.254c0.159 0.189 0.386 0.288 0.616 0.288 0.18 0 0.362-0.061 0.512-0.186 0.339-0.283 0.385-0.787 0.102-1.127l-3.334-4.001c-0.007-0.008-0.019-0.011-0.026-0.019-0.146-0.162-0.353-0.268-0.589-0.268s-0.442 0.106-0.589 0.268c-0.007 0.008-0.019 0.011-0.026 0.019l-3.334 4.001c-0.283 0.339-0.237 0.844 0.102 1.127 0.341 0.284 0.845 0.238 1.127-0.101l1.955-2.347c0.178 2.846 1.249 5.583 3.080 7.781 2.008 2.414 4.816 4.058 7.907 4.628 0.808 0.15 1.623 0.224 2.436 0.224 2.298 0 4.578-0.588 6.602-1.725 2.739-1.537 4.866-4 5.986-6.934 1.122-2.936 1.18-6.189 0.163-9.161z"></path>
      <path d="M17.667 9.2c-0.442 0-0.8 0.358-0.8 0.8v6.666c0 0.442 0.358 0.8 0.8 0.8h4.666c0.442 0 0.8-0.358 0.8-0.8s-0.358-0.8-0.8-0.8h-3.866v-5.866c0-0.442-0.358-0.8-0.8-0.8z"></path>
      </symbol>
      <symbol id="icon-Skin-Condition" viewBox="0 0 32 32">
      <title>Skin-Condition</title>
      <path d="M31 7.3h-30c-0.442 0-0.8-0.358-0.8-0.8s0.358-0.8 0.8-0.8h30c0.442 0 0.8 0.358 0.8 0.8s-0.358 0.8-0.8 0.8z"></path>
      <path d="M31 15.334c-0.148 0-0.297-0.041-0.43-0.125l-0.666-0.434c-2.594-1.703-6.142-4.034-10.192-1.002-2.109 1.584-5.252 1.581-7.359 0-4.023-3.015-7.545-0.744-10.373 1.082l-0.551 0.353c-0.372 0.237-0.867 0.127-1.104-0.246s-0.127-0.867 0.246-1.104l0.541-0.348c2.902-1.872 7.287-4.703 12.201-1.017 1.559 1.167 3.879 1.17 5.44 0 4.95-3.712 9.38-0.795 12.030 0.944l0.647 0.421c0.372 0.238 0.483 0.732 0.245 1.105-0.153 0.239-0.411 0.37-0.675 0.37z"></path>
      <path d="M2.033 24.8c-0.341 0-0.677-0.139-0.919-0.381-0.245-0.245-0.38-0.572-0.38-0.919s0.135-0.673 0.38-0.919c0.242-0.242 0.577-0.381 0.919-0.381v2.6z"></path>
      <path d="M2.033 24.8v-2.6c0.342 0 0.677 0.139 0.92 0.381 0.245 0.245 0.38 0.572 0.38 0.919s-0.135 0.673-0.38 0.919c-0.242 0.242-0.577 0.381-0.92 0.381z"></path>
      <path d="M6.033 19.8c-0.341 0-0.677-0.139-0.919-0.381-0.246-0.245-0.381-0.572-0.381-0.919s0.135-0.673 0.381-0.919c0.242-0.242 0.577-0.381 0.919-0.381v2.6z"></path>
      <path d="M6.033 19.8v-2.6c0.342 0 0.677 0.139 0.92 0.381 0.245 0.245 0.38 0.572 0.38 0.919s-0.135 0.673-0.38 0.919c-0.242 0.242-0.577 0.381-0.92 0.381z"></path>
      <path d="M11.034 24.8c-0.342 0-0.677-0.139-0.92-0.381-0.245-0.245-0.38-0.572-0.38-0.919s0.135-0.673 0.38-0.919c0.242-0.242 0.577-0.381 0.92-0.381v2.6z"></path>
      <path d="M11.034 24.8v-2.6c0.341 0 0.677 0.139 0.919 0.381 0.246 0.245 0.381 0.572 0.381 0.919s-0.135 0.673-0.381 0.919c-0.242 0.242-0.577 0.381-0.919 0.381z"></path>
      <path d="M16.034 19.8c-0.342 0-0.677-0.139-0.92-0.381-0.245-0.245-0.38-0.572-0.38-0.919s0.135-0.673 0.38-0.919c0.242-0.242 0.577-0.381 0.92-0.381v2.6z"></path>
      <path d="M16.034 19.8v-2.6c0.347 0 0.673 0.135 0.919 0.381s0.381 0.572 0.381 0.919-0.135 0.673-0.381 0.919c-0.246 0.245-0.572 0.381-0.919 0.381z"></path>
      <path d="M21.033 24.8c-0.342 0-0.676-0.139-0.919-0.381-0.245-0.245-0.381-0.572-0.381-0.919s0.136-0.673 0.381-0.919c0.242-0.242 0.576-0.381 0.919-0.381v2.6z"></path>
      <path d="M21.033 24.8v-2.6c0.342 0 0.678 0.139 0.92 0.381 0.245 0.245 0.38 0.57 0.38 0.919s-0.134 0.673-0.38 0.919c-0.242 0.242-0.578 0.381-0.92 0.381z"></path>
      <path d="M26.033 19.8c-0.342 0-0.676-0.139-0.919-0.381-0.245-0.245-0.381-0.572-0.381-0.919s0.136-0.673 0.381-0.919c0.242-0.242 0.576-0.381 0.919-0.381v2.6z"></path>
      <path d="M26.033 19.8v-2.6c0.342 0 0.678 0.139 0.92 0.381 0.245 0.245 0.38 0.57 0.38 0.919s-0.134 0.673-0.38 0.919c-0.242 0.242-0.578 0.381-0.92 0.381z"></path>
      <path d="M30.033 24.8c-0.342 0-0.676-0.139-0.919-0.381-0.245-0.245-0.381-0.572-0.381-0.919s0.136-0.673 0.381-0.919c0.242-0.242 0.576-0.381 0.919-0.381v2.6z"></path>
      <path d="M30.033 24.8v-2.6c0.342 0 0.678 0.139 0.92 0.381 0.245 0.245 0.38 0.57 0.38 0.919s-0.134 0.673-0.38 0.919c-0.242 0.242-0.578 0.381-0.92 0.381z"></path>
      </symbol>
      <symbol id="icon-Sparkles" viewBox="0 0 32 32">
      <title>Sparkles</title>
      <path d="M24.514 14.884c-0.364 0-0.681-0.245-0.773-0.598-0.864-3.3-1.97-4.452-5.383-5.598-0.327-0.109-0.545-0.415-0.545-0.759s0.22-0.649 0.545-0.759c3.409-1.145 4.517-2.295 5.383-5.598 0.092-0.352 0.409-0.597 0.773-0.597s0.681 0.245 0.773 0.597c0.866 3.301 1.972 4.452 5.384 5.598 0.327 0.109 0.545 0.415 0.545 0.759s-0.22 0.649-0.545 0.759c-3.411 1.144-4.517 2.295-5.384 5.598-0.092 0.352-0.409 0.597-0.773 0.597zM20.784 7.931c1.836 0.874 2.947 1.965 3.73 3.689 0.784-1.726 1.895-2.816 3.731-3.689-1.836-0.874-2.947-1.965-3.731-3.689-0.784 1.725-1.894 2.816-3.73 3.689zM11.702 30.050c-0.364 0-0.682-0.245-0.774-0.598-1.581-6.061-3.719-8.295-9.945-10.395-0.326-0.109-0.545-0.414-0.545-0.758s0.22-0.648 0.545-0.758c6.226-2.097 8.363-4.332 9.945-10.395 0.184-0.705 1.364-0.704 1.548-0.001 1.582 6.063 3.72 8.298 9.945 10.396 0.327 0.109 0.545 0.414 0.545 0.758s-0.219 0.648-0.545 0.758c-6.225 2.097-8.363 4.333-9.945 10.395-0.092 0.353-0.41 0.598-0.774 0.598zM3.552 18.298c4.436 1.803 6.642 4.005 8.151 8.206 1.509-4.203 3.716-6.403 8.152-8.206-4.437-1.803-6.643-4.003-8.152-8.206-1.509 4.205-3.715 6.405-8.151 8.206zM25.763 30.748c0.094 0.348 0.411 0.592 0.773 0.592s0.68-0.244 0.773-0.594c0.622-2.327 1.376-3.092 3.845-3.905 0.328-0.108 0.55-0.414 0.55-0.759s-0.222-0.652-0.55-0.76c-2.469-0.812-3.224-1.578-3.845-3.906-0.094-0.35-0.411-0.594-0.773-0.594s-0.68 0.244-0.773 0.594c-0.624 2.328-1.378 3.094-3.845 3.906-0.328 0.108-0.55 0.414-0.55 0.76s0.222 0.652 0.55 0.759c2.467 0.812 3.222 1.578 3.845 3.906zM26.536 28.28c-0.524-0.966-1.227-1.644-2.269-2.197 1.042-0.553 1.745-1.231 2.269-2.197 0.522 0.966 1.225 1.644 2.267 2.197-1.042 0.553-1.745 1.231-2.267 2.197z"></path>
      </symbol>
      <symbol id="icon-Time-Lasp" viewBox="0 0 32 32">
      <title>Time-Lasp</title>
      <path d="M16.010 31.798c-0.968 0-1.937-0.089-2.891-0.267-2.555-0.475-4.978-1.588-7.005-3.217-2.027-1.631-3.635-3.758-4.648-6.15-1.014-2.394-1.423-5.028-1.185-7.618 0.24-2.589 1.125-5.103 2.561-7.271s3.405-3.963 5.696-5.195c2.291-1.23 4.876-1.88 7.477-1.88 0.442 0 0.8 0.358 0.8 0.8s-0.358 0.8-0.8 0.8c-2.338 0-4.661 0.584-6.719 1.69-2.059 1.106-3.83 2.721-5.12 4.669s-2.087 4.208-2.302 6.534c-0.215 2.328 0.153 4.696 1.065 6.846s2.355 4.063 4.178 5.528c1.821 1.464 3.998 2.464 6.295 2.892 2.302 0.43 4.689 0.28 6.914-0.431 2.227-0.708 4.263-1.97 5.889-3.65 0.309-0.317 0.816-0.325 1.131-0.019 0.317 0.308 0.327 0.814 0.019 1.131-1.811 1.869-4.076 3.273-6.553 4.062-1.552 0.495-3.176 0.745-4.802 0.745z"></path>
      <path d="M22.652 23.5c-0.192 0-0.384-0.069-0.537-0.208l-6.638-6.034c-0.166-0.152-0.262-0.366-0.262-0.592v-6c0-0.442 0.358-0.8 0.8-0.8s0.8 0.358 0.8 0.8v5.646l6.374 5.795c0.328 0.297 0.352 0.803 0.055 1.13-0.158 0.175-0.375 0.263-0.592 0.263z"></path>
      <path d="M22.624 3.332c-0.119 0-0.239-0.027-0.353-0.082-0.758-0.372-1.55-0.677-2.356-0.907-0.425-0.121-0.672-0.564-0.55-0.989 0.12-0.425 0.555-0.673 0.988-0.55 0.898 0.256 1.781 0.596 2.625 1.010 0.397 0.195 0.559 0.674 0.366 1.070-0.139 0.284-0.423 0.448-0.719 0.448z"></path>
      <path d="M28.476 8.443c-0.258 0-0.511-0.124-0.666-0.355-0.467-0.699-1.002-1.359-1.586-1.963-0.306-0.317-0.299-0.824 0.019-1.131s0.823-0.298 1.131 0.017c0.65 0.672 1.245 1.408 1.767 2.188 0.245 0.367 0.147 0.864-0.22 1.109-0.137 0.091-0.292 0.135-0.445 0.135z"></path>
      <path d="M30.984 15.794c-0.417 0-0.769-0.324-0.797-0.747-0.056-0.84-0.188-1.679-0.394-2.494-0.106-0.429 0.153-0.863 0.581-0.971 0.431-0.109 0.862 0.152 0.972 0.58 0.228 0.909 0.375 1.843 0.437 2.778 0.030 0.441-0.305 0.822-0.745 0.852-0.019 0.001-0.036 0.002-0.055 0.002z"></path>
      <path d="M29.483 23.413c-0.119 0-0.239-0.027-0.353-0.083-0.397-0.194-0.559-0.673-0.364-1.070 0.37-0.755 0.675-1.547 0.906-2.355 0.12-0.425 0.553-0.681 0.987-0.55 0.425 0.12 0.672 0.563 0.55 0.988-0.256 0.902-0.595 1.784-1.009 2.624-0.139 0.283-0.422 0.447-0.717 0.447z"></path>
      </symbol>
      <symbol id="icon-User" viewBox="0 0 32 32">
      <title>User</title>
      <path d="M16 20.8c-2.083 0-4.041-0.811-5.516-2.284s-2.284-3.433-2.284-5.516 0.811-4.041 2.284-5.516c1.474-1.473 3.433-2.284 5.516-2.284 2.053 0 4.064 0.833 5.516 2.284 1.473 1.474 2.284 3.433 2.284 5.516s-0.811 4.041-2.284 5.516c-1.452 1.452-3.463 2.284-5.516 2.284zM16 6.8c-1.655 0-3.213 0.645-4.384 1.816s-1.816 2.729-1.816 4.384 0.645 3.212 1.816 4.384c1.172 1.17 2.729 1.816 4.384 1.816 1.633 0 3.23-0.663 4.384-1.816 1.17-1.172 1.816-2.729 1.816-4.384s-0.645-3.213-1.816-4.384c-1.155-1.154-2.752-1.816-4.384-1.816z"></path>
      <path d="M25.217 28.634c-0.206 0-0.411-0.078-0.567-0.236-1.139-1.147-2.473-2.042-3.966-2.662-2.987-1.244-6.383-1.244-9.369 0-1.492 0.62-2.827 1.516-3.966 2.662-0.311 0.316-0.816 0.316-1.131 0.003-0.313-0.311-0.315-0.817-0.003-1.131 1.288-1.297 2.798-2.309 4.486-3.012 3.376-1.403 7.217-1.403 10.597 0 1.689 0.703 3.199 1.716 4.486 3.012 0.313 0.314 0.309 0.82-0.003 1.131-0.156 0.155-0.361 0.233-0.564 0.233z"></path>
      <path d="M16 31.8c-4.222 0-8.189-1.644-11.172-4.628-2.984-2.983-4.628-6.952-4.628-11.172s1.644-8.188 4.628-11.172c2.984-2.984 6.951-4.628 11.172-4.628s8.189 1.644 11.172 4.628c2.984 2.983 4.628 6.95 4.628 11.172s-1.644 8.189-4.628 11.172c-2.983 2.984-6.95 4.628-11.172 4.628zM16 1.8c-3.793 0-7.359 1.477-10.041 4.159s-4.159 6.248-4.159 10.041c0 3.794 1.477 7.359 4.159 10.041 2.681 2.683 6.247 4.159 10.041 4.159s7.359-1.476 10.041-4.159c2.683-2.681 4.159-6.247 4.159-10.041s-1.476-7.359-4.159-10.041c-2.681-2.682-6.247-4.159-10.041-4.159z"></path>
      </symbol>
      <symbol id="icon-Waves" viewBox="0 0 32 32">
      <title>Waves</title>
      <path d="M4 20.031c-0.442 0-0.8-0.358-0.8-0.8v-6.231c0-0.442 0.358-0.8 0.8-0.8s0.8 0.358 0.8 0.8v6.231c0 0.442-0.358 0.8-0.8 0.8z"></path>
      <path d="M10 25.8c-0.442 0-0.8-0.358-0.8-0.8v-18c0-0.442 0.358-0.8 0.8-0.8s0.8 0.358 0.8 0.8v18c0 0.442-0.358 0.8-0.8 0.8z"></path>
      <path d="M28 20.031c-0.442 0-0.8-0.358-0.8-0.8v-6.231c0-0.442 0.358-0.8 0.8-0.8s0.8 0.358 0.8 0.8v6.231c0 0.442-0.358 0.8-0.8 0.8z"></path>
      <path d="M22 25.8c-0.442 0-0.8-0.358-0.8-0.8v-18c0-0.442 0.358-0.8 0.8-0.8s0.8 0.358 0.8 0.8v18c0 0.442-0.358 0.8-0.8 0.8z"></path>
      <path d="M16 31.8c-0.442 0-0.8-0.358-0.8-0.8v-30c0-0.442 0.358-0.8 0.8-0.8s0.8 0.358 0.8 0.8v30c0 0.442-0.358 0.8-0.8 0.8z"></path>
      </symbol>
      <symbol id="icon-Weight-Loss" viewBox="0 0 32 32">
      <title>Weight-Loss</title>
      <path d="M5.001 31.8c-0.23 0-0.459-0.098-0.617-0.291-1.521-1.839-2.296-4.164-2.183-6.547-0.001-4.35 1.751-6.827 3.296-9.012 1.451-2.051 2.703-3.822 2.703-6.951 0-5.505-1.755-7.423-1.773-7.442-0.301-0.318-0.295-0.822 0.020-1.127 0.313-0.304 0.812-0.305 1.12 0.004 0.091 0.091 2.234 2.306 2.234 8.566 0 3.637-1.523 5.791-2.997 7.874-1.545 2.184-3.003 4.246-3.003 8.126-0.095 2.022 0.55 3.959 1.816 5.491 0.282 0.341 0.234 0.844-0.106 1.127-0.149 0.122-0.33 0.183-0.509 0.183z"></path>
      <path d="M27 31.8c-0.18 0-0.361-0.059-0.509-0.183-0.34-0.283-0.389-0.786-0.108-1.127 1.267-1.531 1.912-3.467 1.819-5.453-0.002-3.917-1.461-5.98-3.005-8.163-1.473-2.083-2.997-4.237-2.997-7.874 0-6.259 2.144-8.474 2.234-8.566 0.312-0.313 0.819-0.313 1.131 0 0.311 0.31 0.312 0.812 0.006 1.124-0.045 0.050-1.772 1.982-1.772 7.441 0 3.129 1.253 4.9 2.703 6.951 1.545 2.185 3.297 4.662 3.297 9.049 0.112 2.347-0.663 4.672-2.183 6.509-0.159 0.192-0.388 0.291-0.617 0.291z"></path>
      <path d="M1 13.8c-0.205 0-0.409-0.078-0.566-0.234-0.313-0.313-0.313-0.819 0-1.131l3.293-3.293v-0.283l-3.293-3.293c-0.313-0.313-0.313-0.819 0-1.131s0.819-0.313 1.131 0l3.293 3.293c0.335 0.335 0.527 0.799 0.527 1.273s-0.192 0.938-0.527 1.273l-3.293 3.293c-0.156 0.156-0.361 0.234-0.566 0.234z"></path>
      <path d="M28.225 9.070l3.341 3.365c0.312 0.313 0.312 0.819 0 1.131-0.156 0.156-0.361 0.234-0.566 0.234s-0.409-0.078-0.566-0.234l-3.294-3.293c-0.166-0.167-0.295-0.36-0.388-0.577-0.094-0.228-0.141-0.46-0.141-0.696s0.047-0.468 0.138-0.688c0.095-0.224 0.225-0.417 0.387-0.582l3.297-3.295c0.312-0.313 0.819-0.313 1.131 0s0.312 0.819 0 1.131l-3.294 3.293z"></path>
      <path d="M16.008 31.8c-0.442 0-0.8-0.358-0.8-0.8v-4c0-0.442 0.358-0.8 0.8-0.8s0.8 0.358 0.8 0.8v4c0 0.442-0.358 0.8-0.8 0.8z"></path>
      <path d="M16 27.8c-0.173 0-0.347-0.056-0.491-0.169-0.069-0.053-6.966-5.386-11.828-6.597-0.391-0.098-0.649-0.473-0.6-0.873 0.049-0.402 0.39-0.703 0.794-0.703h24.251c0.405 0 0.745 0.302 0.794 0.703 0.050 0.4-0.208 0.775-0.6 0.873-4.861 1.211-11.759 6.544-11.827 6.597-0.144 0.112-0.318 0.169-0.491 0.169zM8.13 21.058c3.39 1.681 6.652 4.028 7.87 4.938 1.217-0.909 4.48-3.256 7.869-4.938h-15.738z"></path>
      <path d="M16.008 15.3c-0.348 0-0.674-0.135-0.92-0.38s-0.38-0.572-0.38-0.92c0-0.348 0.135-0.674 0.38-0.92s0.572-0.38 0.92-0.38v2.6z"></path>
      <path d="M16.008 15.3v-2.6c0.345 0 0.671 0.134 0.917 0.378 0.248 0.248 0.383 0.574 0.383 0.922s-0.135 0.674-0.38 0.92c-0.248 0.246-0.574 0.38-0.92 0.38z"></path>
      </symbol>
  </defs>
</svg>
